<?xml version="1.0" standalone="no"?>
<!DOCTYPE svg PUBLIC "-//W3C//DTD SVG 20010904//EN"
 "http://www.w3.org/TR/2001/REC-SVG-20010904/DTD/svg10.dtd">
<svg version="1.0" xmlns="http://www.w3.org/2000/svg"
 width="512.000000pt" height="512.000000pt" viewBox="0 0 512.000000 512.000000"
 preserveAspectRatio="xMidYMid meet">
<metadata>
Created by potrace 1.14, written by Peter Selinger 2001-2017
</metadata>
<g transform="translate(0.000000,512.000000) scale(0.100000,-0.100000)"
fill="#000000" stroke="none">
<path d="M2120 4245 c-7 -8 -17 -12 -24 -8 -17 11 -36 12 -36 2 0 -5 -5 -9
-11 -9 -5 0 -7 6 -3 13 6 9 4 9 -8 -1 -13 -10 -17 -10 -21 0 -4 8 -6 6 -6 -5
-1 -13 -7 -16 -26 -13 -15 3 -23 1 -20 -5 4 -5 11 -6 17 -3 6 4 8 2 4 -4 -3
-6 -18 -9 -32 -6 -16 3 -23 1 -19 -6 3 -5 0 -7 -8 -4 -8 3 -17 -2 -20 -10 -4
-9 -15 -13 -27 -11 -11 2 -18 0 -15 -5 3 -5 -4 -14 -15 -20 -11 -6 -20 -8 -20
-4 0 3 -7 1 -15 -6 -9 -7 -13 -20 -10 -28 4 -12 3 -13 -9 -3 -13 11 -15 9 -11
-7 3 -16 -1 -19 -18 -14 -20 5 -20 4 -8 -11 16 -20 8 -22 -22 -5 -19 9 -20 9
-11 -3 9 -11 9 -17 -2 -27 -11 -10 -14 -10 -14 0 0 8 -5 6 -11 -5 -5 -9 -7
-23 -3 -30 4 -6 4 -9 -1 -5 -4 4 -15 2 -24 -5 -14 -11 -15 -10 -1 8 14 19 14
19 -2 6 -10 -7 -18 -20 -18 -28 0 -9 -6 -13 -14 -10 -11 4 -13 1 -9 -11 6 -15
5 -15 -10 -3 -15 12 -17 12 -11 -4 5 -12 4 -16 -4 -11 -6 3 -14 1 -18 -5 -4
-8 -3 -9 4 -5 7 4 12 3 12 -2 0 -6 -7 -12 -15 -16 -8 -3 -15 0 -15 7 0 8 -4 7
-10 -3 -6 -9 -5 -17 3 -22 8 -5 7 -8 -5 -9 -32 -3 -36 -4 -45 -13 -5 -5 -3 -6
5 -2 21 12 13 -10 -10 -30 -22 -19 -23 -19 -8 1 15 20 14 20 -8 1 -17 -15 -19
-22 -10 -28 10 -6 8 -8 -4 -9 -32 -3 -36 -4 -45 -13 -5 -5 -3 -6 5 -2 19 11
14 -9 -7 -28 -12 -11 -25 -15 -33 -10 -10 6 -11 5 -1 -8 17 -20 5 -30 -21 -16
-19 10 -20 10 -7 -5 11 -15 11 -17 -1 -17 -8 0 -25 -12 -39 -27 -13 -14 -17
-23 -9 -18 12 6 12 5 4 -5 -7 -6 -23 -13 -37 -13 -14 -1 -22 -6 -19 -12 15
-23 10 -35 -9 -25 -15 9 -17 8 -12 -7 5 -13 3 -15 -12 -10 -16 7 -16 5 -4 -10
9 -11 10 -14 2 -9 -9 5 -13 1 -14 -11 0 -10 -3 -13 -6 -5 -7 18 -22 15 -19 -5
2 -10 -8 -26 -21 -36 -13 -10 -20 -23 -17 -29 4 -6 -3 -5 -16 2 -12 6 -24 9
-28 6 -3 -3 0 -6 8 -6 10 0 10 -4 -1 -17 -12 -15 -12 -16 1 -8 8 4 6 -1 -5
-12 -13 -14 -22 -16 -27 -9 -5 7 -8 7 -8 -2 0 -7 -4 -11 -9 -8 -4 3 -7 -6 -5
-19 1 -17 -2 -23 -9 -18 -18 11 -36 12 -42 3 -3 -5 0 -12 6 -16 8 -5 9 -3 4 6
-5 9 -4 11 4 6 9 -6 9 -11 0 -22 -14 -17 -33 -19 -23 -1 6 9 4 9 -8 -1 -9 -7
-15 -21 -13 -31 2 -12 -3 -17 -18 -17 -17 1 -21 -4 -19 -19 2 -11 0 -17 -4
-12 -4 4 -14 -5 -21 -20 -7 -16 -11 -21 -9 -12 2 9 -2 16 -9 16 -7 0 -10 -8
-7 -19 2 -10 -1 -18 -7 -18 -7 0 -9 5 -5 12 5 7 3 8 -5 3 -7 -4 -10 -16 -8
-27 5 -16 3 -17 -11 -6 -13 11 -15 11 -9 -4 4 -11 2 -17 -5 -15 -7 1 -12 -5
-13 -13 0 -8 -11 -20 -25 -27 -14 -7 -21 -13 -17 -13 4 0 3 -8 -2 -18 -7 -13
-6 -23 2 -32 10 -10 7 -10 -13 0 -23 12 -24 12 -11 -3 7 -10 10 -17 7 -17 -4
0 0 -7 8 -16 9 -8 16 -20 16 -27 0 -6 -6 -3 -13 8 -11 14 -16 15 -22 5 -5 -8
-4 -11 3 -6 6 3 13 -3 17 -14 4 -11 11 -17 17 -14 6 4 8 2 4 -4 -3 -6 6 -20
20 -31 15 -12 25 -23 22 -26 -3 -3 -13 4 -23 15 -10 11 -22 20 -26 20 -5 0 5
-13 22 -29 19 -19 28 -35 23 -43 -4 -7 -3 -10 1 -5 14 12 57 -34 45 -49 -8 -9
-6 -12 7 -10 13 1 18 -6 17 -21 0 -12 2 -20 5 -19 3 2 12 -2 19 -10 7 -8 9
-14 5 -14 -4 0 1 -7 11 -15 20 -15 20 -15 0 -16 -14 0 -15 -2 -4 -6 20 -8 40
-29 40 -42 0 -6 6 -11 13 -11 8 0 7 -4 -3 -10 -13 -8 -12 -10 3 -10 19 0 29
-18 31 -53 1 -16 7 -21 20 -19 10 2 15 -1 12 -6 -3 -6 1 -12 9 -16 8 -3 15
-13 15 -21 0 -10 5 -13 13 -9 7 5 6 0 -3 -11 -8 -10 -10 -16 -5 -13 6 3 15 0
22 -7 9 -9 9 -15 2 -17 -7 -2 -3 -10 7 -18 11 -9 15 -10 10 -2 -4 6 -2 12 3
12 6 0 11 -9 11 -20 0 -11 6 -20 13 -20 9 0 8 -3 -2 -9 -11 -7 -9 -10 8 -16
12 -3 21 -15 21 -26 0 -10 4 -19 9 -19 5 0 13 -9 16 -20 3 -11 14 -20 23 -21
14 0 13 -2 -3 -9 -17 -7 -17 -9 -2 -9 9 -1 17 -6 17 -12 0 -6 6 -9 13 -6 9 3
12 -4 11 -24 -1 -16 2 -26 7 -23 5 3 6 10 3 16 -4 7 -2 8 5 4 6 -4 9 -12 6
-17 -4 -5 -1 -9 5 -9 6 0 16 -11 22 -25 9 -21 14 -23 26 -12 13 11 14 9 2 -13
-11 -21 -11 -23 1 -13 11 9 18 6 33 -15 19 -27 19 -27 0 -12 -13 10 -12 8 2
-6 13 -12 20 -26 16 -30 -4 -5 1 -2 11 5 14 11 17 11 17 -2 0 -8 -6 -18 -12
-21 -7 -3 -1 -3 13 0 32 7 46 -10 28 -34 -11 -14 -11 -15 1 -4 19 17 30 15 30
-5 0 -15 2 -16 10 -3 7 11 10 11 10 2 0 -8 5 -10 13 -6 7 5 6 0 -3 -11 -8 -10
-10 -16 -3 -12 6 4 14 1 16 -5 4 -10 6 -10 6 0 1 10 5 10 17 -2 8 -9 20 -13
26 -10 7 4 8 2 4 -5 -4 -6 -2 -18 4 -26 9 -11 17 -12 32 -4 12 7 18 7 14 1 -6
-10 21 -27 37 -23 5 1 5 -4 1 -10 -5 -9 -2 -10 9 -6 11 4 14 2 10 -9 -3 -9 0
-14 8 -12 8 2 13 -3 11 -11 -3 -12 -1 -12 14 0 15 12 17 12 9 0 -6 -11 -3 -13
15 -8 15 4 29 -1 45 -17 23 -23 61 -43 51 -28 -3 5 1 9 8 9 9 0 13 -10 11 -26
-3 -24 -2 -24 11 -6 14 18 14 18 14 -1 0 -16 2 -17 10 -4 6 10 10 11 10 3 0
-7 5 -13 11 -13 5 0 7 6 3 13 -6 9 -4 9 7 1 8 -6 27 -14 43 -18 16 -4 40 -16
54 -26 13 -11 29 -17 34 -14 5 3 16 0 24 -7 12 -10 13 -9 8 5 -10 26 4 18 21
-11 l15 -28 -6 30 c-4 25 -3 27 6 13 6 -10 20 -23 32 -29 15 -8 19 -8 14 0 -4
6 -3 11 3 11 5 0 12 -4 15 -9 7 -10 25 -9 44 2 6 5 12 4 12 -1 0 -5 11 -9 25
-9 16 0 22 4 18 11 -4 6 1 5 10 -3 9 -7 24 -11 32 -7 10 3 15 -1 16 -12 0 -14
2 -14 7 -2 9 19 48 19 82 0 22 -12 24 -11 13 2 -11 12 -9 14 7 13 11 -1 23 -5
27 -10 5 -4 2 -5 -4 -1 -7 4 -13 2 -13 -3 0 -13 17 -14 24 -2 9 14 45 20 53 9
4 -7 1 -8 -7 -3 -9 5 -11 4 -6 -3 5 -9 12 -9 26 0 14 9 22 9 33 -1 12 -9 17
-9 23 0 5 8 3 10 -7 4 -8 -5 -11 -5 -7 -1 10 12 127 13 132 1 3 -5 5 -4 5 4 1
10 4 11 15 2 11 -9 16 -9 22 0 5 8 3 9 -6 4 -8 -5 -11 -4 -6 3 10 17 36 3 30
-16 -5 -15 -4 -15 9 0 8 10 17 15 21 11 4 -4 11 -1 16 7 6 8 10 10 10 5 0 -6
11 -11 25 -11 14 0 25 4 25 8 0 4 5 8 11 8 5 0 7 -6 3 -12 -6 -10 -4 -10 8 0
13 10 17 10 21 0 4 -8 6 -7 6 4 1 12 6 15 18 11 10 -4 14 -2 10 4 -11 17 23 9
34 -8 8 -11 9 -9 5 6 -5 17 -1 21 21 23 15 1 30 -4 35 -10 6 -10 8 -10 8 0 0
7 5 10 10 7 6 -3 10 -1 10 6 0 7 10 9 25 7 14 -3 23 -1 22 6 -1 6 6 10 16 10
9 -1 17 2 17 6 0 4 9 10 20 13 11 3 18 1 14 -4 -3 -5 2 -6 10 -3 9 3 13 11 10
18 -3 6 1 3 9 -7 13 -16 15 -16 21 -2 3 9 2 13 -4 10 -6 -3 -10 -3 -10 2 0 16
48 31 61 19 9 -8 10 -8 5 2 -5 7 -1 12 9 12 10 0 13 -5 9 -12 -4 -7 -3 -8 5
-4 6 4 8 12 5 18 -5 8 -1 9 11 4 16 -6 16 -4 4 11 -11 13 -11 15 -1 9 8 -5 22
-1 35 11 13 10 17 12 10 3 -10 -13 -9 -16 6 -16 13 0 17 7 15 23 -1 13 1 21 5
18 13 -7 61 19 57 30 -2 6 5 11 15 11 14 0 16 -3 6 -15 -10 -12 -9 -12 10 -1
12 8 19 18 17 22 -3 4 5 8 18 9 13 0 17 3 10 6 -6 2 -9 9 -6 14 3 6 12 5 22
-3 14 -12 14 -10 2 12 -12 23 -12 24 4 11 15 -13 18 -12 23 7 3 12 9 19 14 16
5 -3 9 1 9 8 0 10 3 9 11 -2 9 -12 10 -11 6 7 -3 12 -2 22 2 21 24 -3 41 4 35
14 -5 8 -2 9 11 4 14 -5 16 -4 6 8 -9 11 -8 15 4 20 9 3 13 2 10 -3 -3 -5 -2
-12 3 -15 7 -4 11 9 14 51 1 10 4 10 17 0 12 -10 13 -9 6 2 -6 11 -4 13 10 7
15 -5 16 -4 6 8 -9 11 -8 14 6 12 10 0 18 4 19 9 2 21 17 45 27 45 7 0 7 -4
-1 -12 -7 -7 -12 -16 -12 -21 0 -5 9 2 20 16 23 29 26 42 8 31 -10 -6 -10 -5
-1 8 7 8 9 18 5 23 -4 4 3 3 15 -4 19 -10 21 -9 18 10 -3 16 -1 18 9 10 11 -9
12 -6 8 16 -5 26 -4 27 13 13 13 -10 16 -11 11 -2 -5 8 -1 19 10 28 11 9 12
12 4 8 -12 -7 -13 -5 -3 8 7 8 9 19 5 23 -4 5 1 5 10 2 12 -4 19 2 27 24 7 20
15 28 22 23 8 -4 9 -3 5 4 -4 7 -2 12 3 12 6 0 11 5 11 11 0 5 -6 7 -12 3 -9
-5 -8 -2 1 10 11 13 16 14 23 4 7 -9 8 -6 5 11 -4 17 -1 25 14 28 16 5 18 8 7
14 -10 7 -10 9 0 9 6 0 12 8 12 18 0 14 2 15 10 2 5 -8 10 -12 11 -7 1 4 3 12
4 17 1 6 3 17 4 25 0 8 6 15 12 15 5 0 7 -5 3 -12 -4 -7 -3 -8 5 -4 9 6 9 11
-1 24 -10 12 -10 14 0 8 7 -4 12 -2 12 4 0 6 5 8 11 4 8 -4 9 1 4 17 -7 22 -7
23 10 9 11 -9 16 -10 11 -2 -8 13 2 57 11 48 7 -7 32 17 26 27 -2 4 0 7 6 7 6
0 7 7 4 17 -5 12 -3 14 8 8 11 -7 12 -6 2 6 -10 12 -8 15 7 16 13 1 17 -3 13
-15 -4 -14 -3 -14 5 -2 6 8 8 18 5 23 -3 4 3 15 13 22 11 8 16 15 11 15 -8 0
20 60 29 60 3 0 2 -4 -1 -10 -11 -17 0 -11 19 12 18 20 18 21 0 15 -18 -7 -18
-7 0 7 11 9 15 20 10 28 -5 9 -2 8 11 -2 17 -14 17 -13 10 10 -7 21 -6 23 7
12 13 -11 15 -8 12 18 -2 16 1 30 6 30 6 0 10 5 10 11 0 5 -5 7 -12 3 -7 -5
-8 -3 -4 5 5 7 15 10 25 7 14 -5 13 -4 -1 8 -10 7 -18 19 -18 27 0 11 2 11 10
-1 7 -10 10 -11 10 -2 0 7 -7 15 -15 18 -8 4 -12 10 -9 15 3 5 0 9 -6 9 -6 0
-8 5 -5 10 3 6 -1 10 -11 10 -14 0 -14 3 -4 15 11 13 10 14 -5 9 -12 -5 -16
-4 -11 4 4 7 -1 10 -15 7 -16 -3 -18 -1 -10 9 8 10 7 17 -6 27 -11 9 -14 10
-9 2 4 -7 2 -13 -3 -13 -6 0 -11 6 -11 14 0 8 -5 18 -12 22 -7 4 -8 3 -4 -4 4
-8 2 -10 -8 -6 -8 3 -12 12 -9 20 3 8 1 14 -4 12 -6 -2 -19 6 -29 17 -11 12
-14 14 -9 5 9 -13 8 -13 -8 -1 -10 8 -15 21 -12 29 4 12 3 12 -9 3 -16 -14
-25 -4 -21 22 3 15 1 16 -13 5 -11 -9 -14 -10 -8 -1 4 7 2 21 -4 30 -10 16
-11 16 -6 -2 6 -19 6 -19 -9 -1 -8 10 -12 23 -8 29 3 6 1 7 -5 4 -15 -10 -42
3 -42 20 0 8 -4 11 -10 8 -9 -6 -15 8 -11 29 1 5 -6 3 -15 -5 -12 -9 -15 -9
-10 -1 4 6 2 12 -3 12 -6 0 -11 7 -11 16 0 8 -5 12 -10 9 -6 -4 -7 -11 -4 -17
4 -7 2 -8 -4 -4 -6 4 -9 13 -5 21 4 13 -6 19 -28 17 -4 -1 -5 9 -2 21 3 12 1
18 -4 12 -4 -5 -14 -11 -22 -13 -11 -2 -12 0 -3 11 9 11 7 18 -11 33 l-22 19
20 -25 20 -25 -23 19 c-13 11 -20 26 -17 34 4 12 3 13 -10 2 -12 -10 -15 -9
-16 6 -1 11 -1 22 0 26 0 4 -6 5 -14 2 -22 -9 -47 20 -32 35 9 10 6 10 -16 2
-18 -7 -26 -7 -22 -1 3 5 -1 20 -9 32 -9 12 -16 18 -16 12 0 -5 3 -14 8 -20 4
-5 -1 -1 -10 9 -10 11 -16 23 -13 27 3 5 -4 6 -15 3 -15 -4 -20 0 -20 16 0 12
-4 19 -10 16 -5 -3 -10 1 -10 9 0 9 -5 16 -11 16 -5 0 -7 -5 -3 -12 4 -7 3 -8
-5 -4 -6 4 -9 12 -6 17 4 5 1 9 -4 9 -6 0 -11 8 -11 18 0 14 -2 15 -10 2 -9
-13 -10 -13 -11 0 -1 8 -1 19 0 23 1 5 -3 6 -8 2 -6 -3 -26 11 -45 31 -21 22
-39 34 -48 29 -7 -3 -4 1 7 10 20 17 19 17 -8 13 -21 -4 -25 -3 -16 8 8 9 5
15 -10 23 -30 16 -40 12 -11 -4 29 -16 19 -20 -11 -4 -15 7 -17 14 -10 23 7 9
4 12 -11 13 -25 2 -37 14 -20 20 6 3 12 10 12 16 0 8 -4 7 -12 -1 -19 -19 -30
-14 -23 11 7 22 7 22 -9 2 -8 -11 -16 -15 -16 -8 0 7 -11 24 -26 38 -14 14
-23 29 -20 33 3 5 -1 9 -9 9 -12 0 -12 -4 -3 -16 7 -9 -3 -1 -21 16 -18 18
-38 30 -44 26 -6 -4 -8 0 -5 9 5 11 0 14 -20 12 -26 -3 -26 -2 -7 13 20 15 20
15 -3 8 -14 -4 -29 -1 -39 7 -14 11 -16 11 -8 -2 6 -12 5 -13 -6 -2 -7 6 -21
12 -31 12 -12 0 -18 8 -19 23 0 12 -3 16 -6 9 -2 -6 -9 -10 -14 -7 -5 4 -6 -2
-2 -11 4 -12 3 -15 -5 -10 -7 4 -12 14 -12 23 0 13 -2 14 -17 2 -11 -10 -14
-10 -9 -1 4 6 3 12 -3 12 -5 0 -13 -5 -16 -10 -4 -7 -13 -6 -27 1 -11 6 -23 7
-27 3 -7 -11 -42 -11 -59 -1 -6 5 -12 4 -12 -1 0 -5 -7 -9 -15 -9 -8 0 -15 5
-15 11 0 6 -4 5 -9 -3 -7 -11 -13 -12 -23 -4 -10 8 -18 8 -32 -3 -11 -8 -15
-14 -10 -14 6 0 15 5 21 11 7 7 12 6 16 -4 5 -14 -5 -17 -50 -17 -13 0 -23 -5
-23 -11 0 -7 -6 -7 -17 2 -11 10 -14 10 -9 2 4 -7 2 -13 -3 -13 -6 0 -11 5
-11 12 0 6 -3 8 -6 5 -4 -4 -2 -12 4 -19 7 -9 5 -17 -6 -28 -14 -13 -15 -13
-10 1 4 10 0 16 -9 16 -9 0 -18 -8 -20 -18 -3 -10 -16 -25 -30 -35 -18 -11
-23 -12 -18 -3 4 8 -2 3 -13 -10 -12 -15 -25 -22 -35 -18 -9 3 -19 1 -23 -5
-4 -7 -3 -8 4 -4 7 4 12 2 12 -3 0 -6 -4 -11 -9 -11 -12 0 -32 26 -25 33 3 3
-6 4 -21 3 -18 -3 -25 1 -21 10 3 8 0 11 -8 8 -8 -3 -24 5 -36 18 -11 13 -27
23 -33 24 -25 2 -47 17 -40 27 4 6 0 8 -10 4 -10 -3 -17 -2 -17 4 0 6 -4 8 -9
5 -5 -3 -11 1 -15 9 -3 8 -11 15 -18 15 -9 0 -8 -3 2 -10 20 -13 10 -12 -28 1
-18 6 -29 15 -26 20 7 13 -19 7 -28 -6 -5 -7 -8 -7 -8 0 0 6 -11 11 -25 11
-14 1 -25 -2 -25 -6 0 -5 -9 -6 -20 -3 -11 3 -17 9 -14 14 9 15 -3 10 -16 -6z
m-45 -92 c11 0 26 4 33 10 8 6 12 6 12 -3 0 -10 3 -10 15 0 12 10 15 10 15 0
0 -9 4 -9 17 1 9 8 14 9 10 3 -5 -8 7 -11 39 -10 31 1 48 -2 51 -11 4 -10 9
-11 18 -3 9 8 14 6 19 -5 4 -11 2 -14 -6 -9 -7 5 -8 3 -3 -5 5 -9 11 -9 17 -3
7 7 20 -1 40 -21 16 -18 27 -26 23 -19 -3 6 -1 12 4 12 6 0 11 -5 11 -11 0 -5
5 -7 12 -3 8 5 9 2 5 -10 -6 -14 -3 -15 14 -5 11 6 23 8 27 5 3 -3 0 -6 -5 -6
-12 0 -11 -25 1 -37 4 -4 7 -3 6 2 -5 24 1 27 20 10 11 -10 20 -25 20 -34 0
-14 2 -14 10 -1 6 10 10 11 10 3 0 -7 7 -13 16 -13 10 0 14 -6 11 -14 -4 -10
-1 -13 8 -9 8 3 12 10 8 17 -4 7 -1 6 7 -1 11 -10 18 -9 34 5 21 17 21 17 3
-5 -12 -14 -15 -23 -7 -28 6 -3 9 -3 8 2 -3 10 30 58 40 58 4 0 6 4 4 9 -2 5
4 3 13 -4 13 -11 15 -10 10 3 -4 8 -1 18 6 23 8 5 10 3 4 -6 -5 -9 -4 -11 3
-6 7 4 12 14 12 23 0 9 3 13 7 10 3 -4 12 1 20 11 8 9 12 12 9 5 -4 -7 4 -6
24 3 33 17 40 26 13 18 -10 -3 -5 2 11 11 24 14 30 15 37 3 7 -10 9 -8 9 7 1
19 1 19 14 2 12 -16 14 -16 20 -2 4 11 2 14 -7 9 -7 -5 -6 -1 3 10 13 17 14
17 21 -1 6 -15 8 -14 9 7 1 23 2 23 10 5 5 -11 9 -14 9 -7 1 9 6 10 18 3 13
-7 23 -5 34 5 15 13 19 13 30 1 12 -12 16 -12 27 2 12 15 13 14 8 -1 -5 -18
10 -26 16 -8 2 5 13 7 25 4 13 -4 20 -11 16 -18 -3 -6 0 -6 8 2 19 17 34 15
19 -3 -7 -9 -10 -18 -6 -22 3 -3 6 -2 6 3 0 7 53 10 70 4 3 -1 8 -2 12 -1 4 0
5 -5 2 -13 -3 -8 0 -17 7 -22 8 -5 10 -3 5 7 -4 8 -1 6 8 -5 9 -11 22 -16 31
-12 9 3 14 2 11 -2 -5 -9 28 -64 38 -63 20 3 26 0 21 -9 -6 -9 8 -15 29 -11 5
1 6 -5 3 -13 -3 -8 1 -20 9 -27 12 -10 13 -9 7 7 -6 16 -5 17 9 4 9 -8 14 -22
13 -32 -3 -12 3 -15 20 -14 14 2 21 -1 19 -8 -2 -6 9 -17 26 -24 16 -8 30 -18
30 -23 0 -6 -5 -7 -12 -3 -7 4 -8 3 -4 -4 4 -6 13 -9 21 -5 8 3 15 0 15 -7 0
-6 5 -8 12 -4 6 4 8 3 4 -4 -3 -6 -2 -13 4 -17 6 -4 7 -12 3 -18 -4 -7 2 -5
12 3 11 9 16 10 11 3 -4 -8 -2 -13 7 -13 18 0 30 -27 20 -43 -4 -7 1 -6 10 2
15 12 17 11 17 -3 0 -9 5 -16 11 -16 5 0 7 -6 3 -12 -5 -8 -2 -8 10 1 9 8 16
10 15 5 -4 -22 2 -34 17 -34 10 0 14 -6 11 -14 -4 -10 1 -12 16 -9 18 4 19 3
7 -6 -13 -9 -12 -11 3 -11 10 0 16 -4 13 -9 -4 -5 4 -7 16 -5 13 2 17 2 11 -2
-7 -3 -13 -10 -13 -15 0 -6 5 -7 10 -4 6 3 13 0 16 -9 4 -9 15 -13 32 -10 l27
4 -24 -14 c-15 -8 -20 -16 -12 -20 6 -4 11 -2 11 5 0 16 40 -26 41 -43 0 -7 4
-4 9 7 8 18 9 17 9 -7 1 -20 8 -29 30 -36 16 -6 32 -7 36 -4 4 4 6 2 5 -3 -4
-19 0 -38 7 -32 7 8 43 -21 43 -36 0 -5 -9 1 -20 14 -10 13 -19 20 -20 16 0
-5 7 -15 15 -24 8 -8 12 -20 9 -26 -5 -8 -2 -8 7 1 20 19 32 14 26 -10 -6 -22
-6 -22 8 -4 11 15 15 16 15 5 0 -8 9 -21 19 -29 11 -7 18 -17 15 -22 -3 -4 -1
-8 5 -8 5 0 12 6 14 13 4 7 6 6 6 -5 1 -9 -5 -19 -11 -21 -7 -3 2 -4 20 -3 26
3 30 1 21 -10 -9 -11 -8 -14 6 -14 10 0 15 -5 12 -14 -4 -10 1 -12 16 -9 18 4
19 3 7 -6 -13 -9 -12 -11 3 -11 10 0 16 -4 13 -9 -3 -5 1 -12 10 -15 10 -4 13
-2 8 6 -5 7 -3 8 5 4 7 -5 10 -14 7 -22 -3 -7 0 -16 6 -20 7 -4 8 -3 4 4 -4 7
-2 12 3 12 6 0 11 -5 11 -11 0 -5 6 -7 13 -3 8 6 8 3 -1 -9 -12 -14 -11 -16 8
-12 18 4 20 2 9 -11 -10 -12 -9 -13 4 -9 8 4 18 1 22 -4 3 -6 11 -9 16 -6 5 3
6 -2 2 -11 -4 -12 -3 -15 5 -10 8 5 10 1 5 -10 -5 -14 -3 -16 13 -11 15 6 15
4 -4 -11 -18 -14 -20 -20 -10 -30 9 -9 9 -12 -1 -12 -7 0 -9 -5 -5 -12 6 -10
4 -10 -8 0 -13 10 -18 10 -24 1 -4 -8 -3 -9 4 -5 7 4 12 3 12 -3 0 -6 -9 -15
-20 -21 -11 -6 -20 -16 -20 -22 0 -6 7 -5 18 3 15 13 16 12 3 -3 -7 -10 -20
-18 -27 -18 -10 0 -13 -9 -9 -32 4 -24 3 -29 -4 -18 -9 13 -13 13 -28 -4 -10
-10 -12 -15 -5 -11 11 6 12 3 3 -13 -6 -12 -17 -24 -24 -28 -7 -5 -6 0 3 12
14 18 14 18 -10 -1 -14 -11 -27 -22 -30 -24 -3 -2 3 -1 13 2 21 8 23 -11 2
-19 -8 -4 -12 -11 -8 -17 4 -6 0 -8 -10 -4 -11 4 -15 1 -12 -13 2 -10 -3 -21
-11 -24 -7 -3 -21 -20 -29 -38 -8 -18 -13 -24 -10 -13 5 20 5 20 -10 1 -8 -11
-15 -24 -15 -29 0 -4 -5 -5 -12 -1 -7 4 -8 3 -4 -5 5 -7 13 -9 20 -4 7 4 4 1
-6 -9 -13 -12 -15 -18 -6 -22 7 -4 3 -4 -10 -2 -20 4 -21 2 -10 -12 10 -12 10
-14 1 -8 -8 4 -13 2 -13 -4 0 -6 -5 -8 -11 -4 -7 4 -10 1 -7 -7 3 -8 -6 -22
-19 -33 -14 -11 -22 -25 -18 -33 3 -11 1 -13 -10 -10 -8 4 -17 2 -20 -4 -4 -5
-1 -8 6 -7 6 2 14 -4 17 -12 2 -8 1 -12 -3 -8 -5 4 -14 3 -22 -3 -16 -14 -18
-33 -1 -23 6 4 8 3 4 -4 -3 -6 -15 -9 -26 -7 -18 3 -19 1 -8 -18 10 -20 10
-21 -6 -8 -15 12 -17 12 -14 0 2 -8 -2 -13 -8 -12 -7 1 -9 -8 -6 -24 3 -18 1
-24 -7 -19 -6 4 -8 12 -5 18 4 7 2 8 -5 4 -6 -4 -9 -11 -6 -16 3 -4 -2 -11
-10 -14 -8 -3 -15 -9 -14 -13 3 -21 -2 -33 -16 -33 -8 0 -17 -11 -21 -24 -6
-24 -29 -41 -43 -31 -4 2 -8 -2 -8 -10 0 -11 5 -12 21 -4 20 10 21 10 2 -5
-11 -9 -26 -16 -34 -16 -7 0 -10 -4 -7 -10 3 -6 -1 -10 -9 -10 -8 0 -18 -5
-22 -12 -4 -7 -3 -8 4 -4 8 5 10 2 6 -9 -5 -13 -9 -13 -22 -3 -12 10 -14 10
-8 1 7 -12 -5 -18 -28 -14 -5 1 -4 -4 3 -13 8 -10 9 -16 1 -21 -5 -3 -10 0
-11 7 0 10 -2 10 -6 0 -2 -6 -9 -10 -14 -6 -5 3 -8 0 -7 -8 2 -7 -5 -12 -14
-12 -10 1 -15 -3 -11 -9 4 -6 0 -8 -10 -4 -9 3 -19 1 -23 -5 -4 -6 -3 -8 3 -5
6 4 13 1 16 -6 3 -9 -4 -12 -24 -11 -16 1 -26 -2 -23 -7 3 -5 0 -9 -6 -9 -6 0
-9 -4 -5 -9 3 -6 -4 -8 -16 -6 -18 4 -19 2 -7 -12 12 -15 11 -15 -10 -4 -12 6
-22 8 -21 4 3 -20 -2 -27 -11 -13 -7 11 -10 11 -10 2 0 -7 -4 -10 -10 -7 -5 3
-7 0 -4 -8 6 -16 -22 -31 -38 -20 -6 3 -8 1 -4 -5 3 -6 2 -13 -3 -16 -5 -4
-12 2 -14 11 -3 13 -5 10 -6 -7 -1 -20 -3 -22 -11 -10 -8 12 -10 12 -10 1 0
-8 -7 -11 -19 -8 -14 3 -18 1 -14 -9 3 -8 1 -14 -5 -14 -6 0 -13 6 -15 13 -3
7 -6 5 -6 -6 -1 -14 -5 -16 -20 -8 -14 8 -18 7 -17 -2 0 -6 -1 -12 -4 -13 -3
0 -14 -6 -26 -12 -12 -6 -26 -7 -34 -2 -18 11 -53 -7 -44 -22 4 -7 3 -8 -4 -4
-7 4 -12 1 -13 -6 0 -10 -2 -10 -6 0 -2 6 -9 12 -14 12 -6 0 -7 -6 -3 -12 5
-8 0 -7 -11 2 -10 8 -16 10 -12 3 4 -6 3 -14 -3 -18 -5 -3 -10 -1 -10 6 0 8
-4 8 -15 -1 -10 -9 -15 -9 -15 -1 0 6 -5 11 -11 11 -5 0 -7 -6 -3 -12 5 -8 0
-7 -11 2 -17 14 -18 13 -12 -2 4 -12 2 -15 -9 -11 -7 3 -14 10 -14 16 0 6 -3
7 -6 4 -4 -4 -1 -13 5 -21 10 -12 8 -13 -10 -9 -17 5 -20 3 -14 -8 5 -8 -2 -5
-15 6 -13 11 -20 14 -15 6 6 -11 4 -13 -8 -8 -10 3 -17 2 -17 -3 0 -9 -45 -4
-63 7 -6 3 -7 1 -3 -5 9 -15 5 -15 -29 -2 -17 7 -24 7 -20 0 3 -6 -1 -10 -10
-10 -10 0 -14 5 -9 13 6 10 4 10 -7 0 -17 -17 -32 -17 -24 0 3 6 0 4 -7 -5
-11 -15 -13 -15 -23 -1 -10 14 -13 13 -28 -2 -9 -9 -17 -11 -17 -5 0 6 -4 8
-10 5 -5 -3 -10 0 -10 7 0 10 -2 10 -9 0 -4 -8 -12 -14 -16 -14 -4 0 -12 6
-16 14 -5 7 -9 8 -9 2 0 -10 -57 -11 -67 0 -3 3 -13 1 -23 -4 -11 -6 -24 -4
-38 6 -15 10 -23 11 -28 3 -4 -7 -3 -9 3 -6 6 4 17 -1 24 -10 12 -15 12 -16
-1 -8 -18 11 -36 16 -70 16 -14 1 -30 5 -37 11 -7 6 -14 5 -19 -3 -5 -8 -3 -9
6 -4 8 5 11 4 7 -3 -4 -5 -16 -8 -27 -5 -19 5 -19 6 -2 22 10 9 13 13 7 9 -19
-12 -127 -10 -120 2 3 4 -10 8 -28 8 -17 0 -40 2 -49 4 -22 5 -36 18 -19 18 7
0 9 5 5 11 -4 8 -9 7 -16 -2 -7 -11 -11 -11 -15 -1 -2 6 -9 12 -14 12 -6 0 -8
-4 -5 -8 3 -5 -1 -9 -9 -9 -8 0 -12 4 -10 8 3 4 -2 10 -11 13 -9 4 -13 2 -8
-5 5 -8 1 -8 -13 0 -11 6 -24 7 -28 3 -5 -4 -5 -1 -1 6 4 7 12 9 18 6 6 -4 8
-2 5 4 -4 5 -16 8 -27 5 -11 -3 -20 0 -20 6 0 6 -5 11 -11 11 -5 0 -7 -6 -3
-12 6 -9 3 -9 -9 0 -9 8 -22 10 -29 6 -8 -5 -8 -1 2 11 14 16 13 17 -7 11 -14
-4 -25 -2 -30 6 -4 8 -16 14 -25 15 -35 1 -39 3 -33 13 3 5 -1 10 -10 10 -9 0
-14 4 -11 9 3 5 -1 12 -10 15 -10 4 -13 2 -9 -7 4 -6 0 -4 -8 5 -8 10 -17 15
-20 11 -4 -3 -7 2 -7 13 0 16 -2 17 -10 4 -8 -13 -10 -13 -10 2 0 12 -6 15
-22 11 -19 -4 -20 -3 -8 6 12 9 11 11 -8 11 -15 0 -21 4 -16 12 5 7 2 9 -9 5
-17 -7 -42 17 -33 32 3 5 -5 8 -19 6 -14 -1 -23 0 -21 3 9 9 -14 42 -30 42 -8
0 -12 5 -9 10 3 6 -1 10 -10 10 -9 0 -13 4 -10 10 3 6 -1 10 -9 10 -10 0 -16
9 -16 23 0 18 -2 19 -10 7 -5 -8 -10 -12 -10 -7 0 19 -3 23 -23 34 -12 7 -17
13 -12 13 6 1 1 5 -10 10 -20 8 -20 9 0 9 18 1 18 2 -3 17 -12 8 -27 12 -33 8
-7 -4 -7 1 1 16 10 18 9 21 -1 15 -9 -6 -11 -3 -6 8 4 10 -3 21 -21 32 l-27
16 22 -19 c19 -17 20 -21 7 -26 -8 -3 -13 -2 -10 3 3 5 -1 14 -9 21 -12 10
-13 16 -3 27 6 8 7 13 2 11 -5 -1 -19 6 -31 16 -17 15 -19 24 -12 42 4 13 5
23 1 21 -4 -1 -18 6 -32 16 -16 11 -19 17 -10 18 8 0 5 4 -7 9 -13 5 -23 16
-23 25 0 8 -4 15 -10 15 -5 0 -10 7 -10 16 0 9 -5 12 -12 8 -8 -5 -7 0 2 11 8
10 11 16 5 13 -5 -3 -15 0 -22 7 -10 11 -10 15 0 18 7 3 5 6 -5 6 -12 1 -15 6
-11 18 4 11 3 14 -5 9 -7 -4 -12 -2 -12 4 0 6 -6 8 -12 4 -7 -4 -10 -4 -6 1 4
4 2 15 -5 24 -11 14 -10 14 6 2 9 -8 20 -12 22 -9 3 3 -6 11 -20 18 -22 12
-30 28 -26 54 1 5 -5 6 -13 3 -11 -5 -18 2 -23 21 -8 32 -27 54 -39 44 -5 -4
-2 2 6 12 14 18 13 19 -2 13 -12 -4 -15 -2 -11 9 3 7 0 14 -6 14 -6 0 -11 7
-11 15 0 8 5 15 12 15 6 0 8 3 5 6 -4 4 -13 1 -22 -6 -12 -10 -15 -10 -15 4 0
10 -4 14 -10 11 -5 -3 -10 -1 -10 4 0 6 5 11 10 11 6 0 10 5 10 11 0 5 -4 8
-8 5 -5 -3 -16 4 -25 14 -11 13 -12 20 -4 24 7 2 5 5 -4 5 -9 1 -16 8 -16 16
0 9 6 14 14 11 10 -4 11 -1 4 13 -8 14 -4 22 21 41 17 12 27 17 23 10 -5 -9
-4 -11 3 -6 7 4 12 14 12 22 0 8 4 12 10 9 5 -3 10 1 10 10 0 9 5 13 10 10 6
-3 10 1 10 10 0 9 5 13 10 10 6 -3 10 1 10 10 0 10 7 15 17 13 10 -2 18 3 19
10 1 6 2 17 3 24 0 6 4 9 7 6 3 -4 14 2 25 13 11 11 24 17 29 14 5 -3 12 0 16
6 4 8 3 9 -4 5 -21 -13 -13 10 10 30 22 19 23 19 8 -1 -15 -20 -14 -20 8 -1
17 15 19 22 10 28 -10 6 -8 8 5 9 31 3 35 4 44 13 5 5 3 6 -4 2 -15 -9 -18 10
-3 19 6 4 7 11 4 17 -4 7 -2 8 5 4 6 -4 8 -12 5 -18 -4 -7 -2 -8 4 -4 7 4 12
14 12 23 0 13 2 13 17 2 15 -13 15 -12 5 7 -13 25 -5 39 15 22 11 -8 12 -7 7
6 -4 11 -1 16 10 16 9 0 16 6 16 13 0 6 12 23 27 37 15 14 23 18 18 10 -8 -13
-7 -13 8 -1 10 8 15 16 12 19 -3 3 5 10 16 16 12 6 20 14 18 18 -2 3 8 16 24
28 15 12 24 26 21 32 -4 5 4 5 16 -2 15 -8 20 -8 16 -1 -4 6 -1 11 6 11 9 0 9
3 -2 10 -13 8 -12 10 3 10 12 0 16 4 11 13 -6 9 -4 9 8 -1 13 -10 18 -10 24
-1 4 8 3 9 -4 5 -7 -4 -12 -2 -12 3 0 6 5 11 12 11 6 0 8 3 5 6 -3 4 5 15 18
26 14 11 22 24 19 30 -4 6 2 5 15 -1 11 -7 22 -8 23 -4 0 4 2 13 3 18 2 6 3
15 4 20 1 6 6 3 11 -5 8 -13 10 -12 10 4 0 12 5 16 15 12 13 -5 14 -2 4 17
-10 19 -10 20 2 11 11 -9 17 -8 29 4 13 14 12 15 -3 9 -11 -4 -16 -3 -12 3 3
6 13 10 22 10 9 0 14 3 11 6 -3 3 4 15 16 28 14 15 25 19 34 13 9 -7 11 -5 6
8 -5 13 -4 16 4 11 11 -7 17 13 13 38 -1 5 4 4 13 -3 11 -9 16 -9 22 0 5 8 3
9 -6 4 -9 -5 -11 -4 -6 4 6 9 11 9 22 0 9 -7 14 -8 13 -3 -6 31 2 46 22 41 16
-4 18 -3 9 8 -13 15 -5 22 34 29 16 3 31 8 35 12 3 4 -2 4 -11 1 -10 -3 -20
-1 -24 5 -4 7 -3 8 4 4 7 -4 12 -3 12 3 0 6 7 7 17 4 12 -5 14 -3 8 8 -7 11
-5 11 10 -1 10 -8 16 -10 12 -4 -4 7 0 14 7 17 8 3 17 1 20 -6 2 -7 5 -2 5 11
1 12 6 22 12 22 5 0 8 -4 4 -9 -3 -5 0 -13 7 -17 7 -4 10 -4 6 1 -4 4 0 14 10
22 9 8 11 11 3 7 -10 -5 -12 -3 -7 5 5 7 12 9 19 3 7 -5 21 -9 32 -9z m-241
-21 c3 -5 -1 -9 -9 -9 -8 0 -12 4 -9 9 3 4 7 8 9 8 2 0 6 -4 9 -8z m536 -34
c0 -6 -6 -5 -15 2 -8 7 -15 14 -15 16 0 2 7 1 15 -2 8 -4 15 -11 15 -16z
m-1010 -408 c0 -5 -5 -10 -11 -10 -5 0 -7 5 -4 10 3 6 8 10 11 10 2 0 4 -4 4
-10z m2505 -188 c-3 -3 -11 0 -18 7 -9 10 -8 11 6 5 10 -3 15 -9 12 -12z m389
-628 c3 -8 2 -12 -4 -9 -6 3 -10 10 -10 16 0 14 7 11 14 -7z m-314 -304 c0 -5
-5 -10 -11 -10 -5 0 -7 5 -4 10 3 6 8 10 11 10 2 0 4 -4 4 -10z m-2719 -27
c13 -16 12 -17 -3 -4 -10 7 -18 15 -18 17 0 8 8 3 21 -13z m2629 -117 c0 -3
-4 -8 -10 -11 -5 -3 -10 -1 -10 4 0 6 5 11 10 11 6 0 10 -2 10 -4z m-740 -516
c0 -5 -5 -10 -11 -10 -5 0 -7 5 -4 10 3 6 8 10 11 10 2 0 4 -4 4 -10z"/>
<path d="M3150 4110 c0 -5 5 -10 11 -10 5 0 7 5 4 10 -3 6 -8 10 -11 10 -2 0
-4 -4 -4 -10z"/>
<path d="M2555 3960 c-3 -5 -1 -10 4 -10 6 0 11 5 11 10 0 6 -2 10 -4 10 -3 0
-8 -4 -11 -10z"/>
<path d="M1721 3916 c-9 -11 -9 -16 1 -22 7 -4 10 -4 6 1 -4 4 -3 14 3 22 6 7
9 13 6 13 -2 0 -10 -6 -16 -14z"/>
<path d="M3543 3765 c0 -8 4 -12 9 -9 5 3 6 10 3 15 -9 13 -12 11 -12 -6z"/>
<path d="M1549 3753 c-13 -16 -12 -17 4 -4 9 7 17 15 17 17 0 8 -8 3 -21 -13z"/>
<path d="M1429 3633 c-12 -16 -12 -17 2 -6 9 7 20 9 24 5 5 -4 5 -1 1 6 -9 16
-11 15 -27 -5z"/>
<path d="M2166 3595 c4 -8 11 -15 16 -15 6 0 5 6 -2 15 -7 8 -14 15 -16 15 -2
0 -1 -7 2 -15z"/>
<path d="M2263 3596 c-13 -7 -20 -16 -15 -21 4 -4 -6 1 -23 11 -22 14 -27 15
-18 3 11 -14 7 -15 -27 -15 -22 1 -40 -2 -40 -6 0 -5 -5 -8 -11 -8 -5 0 -7 6
-3 13 4 6 -3 3 -16 -8 -13 -11 -20 -15 -17 -8 5 7 1 10 -10 8 -10 -1 -17 -9
-15 -17 1 -10 -5 -15 -20 -14 -13 1 -29 -3 -37 -8 -8 -6 -17 -10 -20 -9 -10 4
-43 -8 -38 -14 3 -2 16 0 29 7 l23 11 -23 -20 c-12 -11 -32 -18 -43 -16 -12 3
-17 0 -13 -7 5 -7 2 -9 -9 -5 -11 4 -15 1 -12 -12 3 -15 -1 -17 -17 -13 -16 4
-19 2 -13 -9 8 -12 6 -12 -8 0 -14 11 -18 11 -23 -3 -3 -9 -11 -13 -18 -10 -6
3 -2 -2 8 -10 23 -18 14 -21 -15 -6 -11 6 -19 7 -18 3 3 -20 -2 -27 -11 -13
-6 9 -10 11 -10 3 0 -7 -6 -11 -12 -9 -7 1 -10 1 -5 -1 12 -8 8 -23 -7 -23 -8
0 -17 -6 -19 -12 -4 -10 -6 -10 -6 0 -1 6 -6 12 -12 12 -6 0 -9 -6 -6 -14 8
-20 -4 -28 -20 -14 -11 8 -12 7 -8 -5 8 -20 -11 -31 -26 -14 -11 11 -16 10
-31 -5 -26 -26 -22 -35 5 -12 20 17 20 16 -2 -9 -24 -27 -38 -36 -26 -17 3 6
1 10 -4 10 -6 0 -11 -4 -11 -10 0 -5 -9 -10 -19 -10 -11 0 -23 -5 -27 -12 -5
-7 -3 -8 6 -3 9 5 11 4 6 -4 -4 -6 -11 -9 -16 -6 -5 3 -11 1 -15 -5 -3 -5 -18
-10 -33 -11 -15 0 -21 -3 -14 -6 6 -2 10 -9 7 -13 -3 -5 -12 -7 -20 -4 -8 4
-17 -1 -21 -9 -3 -9 -12 -13 -21 -10 -11 4 -14 2 -9 -5 4 -7 1 -12 -9 -12 -10
0 -13 -5 -9 -12 5 -9 2 -9 -9 1 -15 12 -17 11 -17 -2 0 -9 -5 -19 -12 -23 -6
-4 -8 -3 -5 3 3 5 0 10 -7 10 -8 0 -12 -6 -9 -13 2 -6 -1 -15 -8 -20 -8 -5
-10 -3 -4 7 5 8 4 11 -1 6 -14 -13 -11 -31 8 -48 14 -12 15 -18 5 -28 -9 -10
-8 -11 7 -5 13 5 17 4 12 -4 -4 -7 0 -10 13 -7 15 3 19 -2 16 -21 -1 -14 0
-22 3 -19 3 2 12 -1 21 -8 14 -11 15 -10 2 8 -8 11 -3 8 12 -6 14 -15 31 -29
37 -31 6 -2 12 -13 13 -25 1 -17 4 -19 14 -11 10 8 12 7 8 -5 -4 -8 -1 -18 6
-23 7 -4 10 -3 5 4 -3 6 -2 14 4 17 6 4 10 3 9 -2 -4 -23 3 -42 17 -47 12 -5
14 -3 8 7 -5 7 -1 4 8 -6 10 -11 15 -24 11 -31 -4 -6 1 -5 11 3 9 8 16 10 14
5 -2 -5 10 -23 26 -39 16 -17 23 -21 15 -11 -13 18 -13 18 8 6 18 -12 20 -17
10 -29 -9 -12 -9 -13 1 -7 6 4 12 2 12 -3 0 -6 9 -11 19 -11 35 0 53 -11 41
-25 -8 -10 -8 -15 1 -21 7 -4 9 -3 6 3 -4 7 3 10 18 9 25 -1 35 -15 13 -17 -7
-1 3 -5 22 -8 23 -4 34 -12 32 -21 -3 -11 0 -11 14 1 10 8 15 10 12 4 -3 -5 1
-16 9 -24 13 -12 14 -11 8 10 -7 23 -7 23 8 4 8 -11 14 -22 12 -26 -2 -3 2 -6
10 -6 8 0 11 5 8 11 -4 6 0 5 9 -1 8 -7 18 -10 21 -6 4 3 7 1 7 -5 0 -7 5 -12
11 -12 5 0 7 4 4 10 -3 6 1 7 10 4 11 -5 13 -10 5 -19 -8 -10 -8 -15 1 -21 7
-4 9 -3 6 3 -4 6 0 13 8 16 10 4 12 1 8 -11 -6 -15 -5 -15 10 -3 11 9 17 10
17 2 0 -6 5 -11 11 -11 5 0 8 4 5 8 -3 5 1 9 9 9 8 0 12 -4 9 -9 -3 -4 2 -8
11 -8 9 0 13 -5 9 -11 -5 -8 -1 -8 14 0 26 14 32 14 32 0 0 -5 -4 -7 -10 -4
-15 9 -12 -1 4 -14 11 -9 16 -9 22 0 5 8 3 9 -6 4 -9 -6 -11 -4 -5 5 6 10 11
9 22 -5 9 -14 13 -15 13 -4 0 11 2 12 9 0 6 -9 11 -10 15 -2 5 7 13 8 25 1 10
-5 21 -6 25 -3 3 3 6 1 6 -5 0 -7 5 -12 11 -12 5 0 8 4 5 8 -3 5 1 9 8 9 8 0
12 -6 9 -13 -3 -8 2 -11 16 -7 11 3 19 9 16 13 -3 4 11 0 31 -10 20 -11 43
-16 51 -13 12 5 14 3 8 -7 -5 -9 -4 -11 4 -6 6 4 9 11 6 16 -3 5 0 12 6 16 8
4 9 3 5 -4 -4 -7 -2 -12 4 -12 6 0 9 -4 6 -8 -2 -4 4 -9 15 -9 10 -1 19 3 19
8 0 6 -4 7 -10 4 -5 -3 -10 -1 -10 4 0 16 11 13 32 -6 18 -16 18 -16 12 2 -5
13 -4 16 4 11 7 -4 12 -2 12 6 1 9 3 8 10 -3 8 -14 64 -19 77 -5 3 3 15 0 27
-6 26 -14 57 -18 50 -6 -4 5 -12 7 -18 5 -7 -3 -13 1 -13 9 0 7 5 10 11 7 18
-11 76 -11 76 1 0 6 6 1 14 -10 15 -21 40 -25 64 -10 6 4 17 4 24 0 6 -4 8 -3
4 4 -3 6 -24 9 -46 7 -22 -2 -38 0 -35 4 2 4 24 7 49 6 25 -1 44 1 41 5 -2 4
2 7 10 7 8 0 11 -5 7 -11 -10 -17 -11 -37 -1 -30 5 3 7 9 4 14 -3 4 2 11 11
14 23 9 26 8 19 -6 -4 -7 0 -5 8 5 16 20 31 23 22 5 -4 -7 1 -4 9 6 9 11 16
14 16 8 0 -14 21 -12 32 3 5 6 8 4 8 -5 0 -13 1 -13 10 0 9 13 10 13 10 0 0
-13 1 -13 10 0 8 13 12 13 32 1 20 -13 22 -12 11 1 -13 15 -8 28 9 28 5 0 6
-5 2 -12 -5 -7 -3 -8 5 -4 7 5 10 14 7 22 -7 18 -1 18 18 -2 15 -14 16 -14 16
3 0 15 2 16 10 3 8 -12 10 -12 10 -1 0 11 3 11 15 1 10 -9 15 -9 15 -1 0 6 3
10 8 10 22 -4 31 3 25 18 -4 11 -3 14 6 9 6 -4 19 -2 28 6 9 7 14 8 10 2 -3
-6 0 -11 8 -11 8 0 11 5 8 10 -4 6 3 8 15 5 12 -4 20 -2 16 3 -3 5 0 9 5 9 6
0 11 8 11 17 0 15 2 14 14 -3 8 -10 18 -16 22 -11 4 4 2 7 -5 7 -17 0 17 34
37 37 24 3 62 25 62 35 0 5 -6 6 -12 2 -9 -5 -9 -2 1 9 16 20 22 22 18 6 -1
-6 4 -14 11 -16 7 -3 11 1 10 9 -2 7 3 12 10 11 6 -2 12 4 12 13 0 10 6 14 14
11 17 -7 49 26 39 38 -5 4 1 5 12 1 11 -4 16 -4 12 0 -4 4 1 13 11 21 9 8 11
11 3 7 -10 -5 -12 -3 -7 5 6 9 11 9 22 0 12 -9 13 -9 9 3 -7 18 15 39 43 41
13 1 18 6 14 16 -4 10 -1 12 8 6 10 -6 12 -4 7 8 -6 16 9 23 37 18 5 -1 3 5
-4 14 -11 13 -10 14 5 9 14 -6 16 -4 10 7 -8 12 -6 12 8 0 15 -12 17 -12 12 2
-4 8 -1 18 6 23 8 5 10 3 4 -6 -5 -9 -4 -11 3 -6 7 4 12 15 12 24 0 15 2 15
11 2 9 -12 10 -11 6 7 -4 19 -2 21 13 13 20 -11 31 -4 24 14 -3 7 3 19 13 27
17 13 17 13 3 -5 -9 -12 -10 -17 -3 -12 7 4 18 16 24 28 8 15 8 19 0 14 -6 -4
-11 -2 -11 4 0 6 -4 8 -10 5 -5 -3 -10 -1 -10 4 0 6 -7 11 -15 11 -8 0 -15 4
-15 10 0 5 8 7 18 3 14 -5 13 -3 -3 10 -24 19 -39 22 -29 5 4 -7 -6 -3 -22 9
-16 11 -33 21 -37 21 -5 0 -12 4 -15 8 -4 4 -1 4 6 0 6 -4 12 -2 12 5 0 6 -8
9 -19 6 -21 -5 -36 17 -24 35 3 7 1 8 -6 4 -6 -4 -9 -17 -6 -29 2 -12 2 -16
-1 -9 -3 6 -10 10 -14 7 -5 -3 -7 4 -5 16 4 17 2 19 -10 9 -12 -10 -15 -9 -15
4 0 14 -3 15 -22 5 -22 -12 -22 -11 -8 6 14 17 13 18 -8 13 -12 -4 -20 -2 -16
3 3 5 0 9 -6 9 -6 0 -8 5 -4 13 6 9 4 9 -8 -1 -13 -10 -18 -10 -24 -1 -5 8 -3
9 6 4 9 -5 11 -4 6 4 -6 9 -11 9 -21 1 -9 -7 -16 -6 -25 5 -7 9 -19 14 -27 11
-8 -3 -11 -1 -8 4 3 6 2 10 -3 10 -5 0 -14 10 -21 23 -9 18 -11 18 -6 2 5 -19
4 -19 -14 2 -14 17 -21 19 -31 10 -10 -9 -11 -9 -5 2 6 11 4 13 -11 7 -10 -4
-16 -4 -12 -1 8 8 -31 55 -46 55 -5 0 -1 -7 10 -15 18 -14 17 -15 -8 -4 -18 8
-25 16 -20 28 5 14 3 14 -10 3 -11 -9 -18 -10 -23 -2 -3 5 -3 10 2 10 4 0 0 5
-10 11 -9 6 -14 15 -11 21 4 7 2 8 -5 4 -9 -6 -9 -11 0 -22 8 -10 8 -14 0 -14
-6 0 -11 4 -11 8 0 5 -7 17 -15 28 -14 17 -15 17 -9 1 6 -17 5 -18 -14 -6 -11
7 -26 22 -32 34 -7 14 -9 15 -6 2 5 -15 3 -16 -17 -5 -12 7 -26 11 -31 10 -5
-2 -3 5 5 14 13 16 12 16 -8 5 -19 -10 -24 -9 -35 8 -10 16 -15 18 -27 8 -12
-10 -13 -9 -6 2 6 11 1 13 -23 9 -27 -4 -30 -2 -19 11 10 12 9 13 -1 7 -7 -4
-20 -2 -30 6 -15 11 -15 11 -5 -2 9 -13 6 -15 -18 -16 -29 -1 -29 -1 -12 20
10 12 11 15 3 9 -15 -14 -66 -18 -73 -5 -2 4 -2 2 -1 -5 2 -7 -1 -15 -6 -18
-6 -4 -10 -1 -10 4 0 6 -8 11 -17 11 -15 0 -16 -2 -3 -10 12 -8 8 -10 -15 -11
-54 -3 -70 -5 -88 -13 -9 -5 -24 -6 -31 -3 -10 4 -13 1 -9 -9 4 -10 0 -12 -13
-7 -13 5 -15 3 -9 -8 7 -11 5 -11 -10 1 -10 8 -16 10 -12 4 7 -13 -17 -27 -27
-16 -12 11 -36 10 -36 -1 0 -7 -5 -5 -10 3 -9 13 -10 13 -10 0 0 -13 -2 -13
-9 -1 -8 13 -12 13 -27 0 -15 -12 -16 -12 -9 0 6 11 3 13 -13 9 -12 -3 -21 -3
-20 1 2 21 -4 30 -19 24 -10 -4 -14 -2 -9 5 4 7 -1 10 -14 7 -13 -2 -20 1 -20
11 0 8 -4 14 -10 14 -5 0 -7 -8 -4 -17 3 -11 -5 -6 -21 12 -19 21 -24 24 -16
8 7 -14 8 -24 1 -28 -9 -6 -14 1 -11 18 0 4 -6 7 -15 7 -8 0 -13 -4 -10 -8 2
-4 -4 -9 -15 -9 -10 -1 -19 3 -19 8 0 6 4 8 8 5 5 -3 9 1 9 9 0 8 -1 15 -1 14
-1 -1 -11 -7 -23 -13z m40 -122 c21 -2 27 0 17 6 -8 5 -12 12 -8 15 3 3 13 -1
22 -10 12 -12 16 -13 16 -3 0 8 3 9 8 3 4 -5 16 -12 27 -13 11 -2 23 -8 26
-14 3 -5 9 -9 13 -9 19 3 27 0 22 -7 -3 -5 1 -9 9 -9 8 0 12 4 10 8 -6 8 11 6
39 -6 12 -5 21 -3 28 6 8 11 9 10 4 -3 -3 -10 -1 -20 5 -24 5 -3 8 -19 5 -35
-3 -20 1 -32 12 -39 12 -7 13 -9 3 -10 -8 0 -11 -7 -8 -19 5 -22 -11 -54 -24
-46 -5 3 -6 0 -3 -8 3 -8 0 -18 -7 -23 -8 -5 -10 -3 -4 6 6 10 4 11 -6 4 -24
-15 -62 -17 -53 -2 5 10 4 10 -6 1 -11 -10 -17 -10 -29 0 -12 9 -13 9 -7 0 4
-8 1 -13 -9 -13 -9 0 -13 5 -9 11 3 6 -5 3 -20 -6 -24 -16 -26 -16 -26 -1 0
10 -5 14 -10 11 -6 -4 -8 -10 -5 -15 3 -4 -5 -6 -17 -2 -15 4 -19 2 -13 -7 4
-7 -5 -5 -20 5 -29 19 -68 27 -59 12 4 -5 12 -7 18 -5 7 3 13 -1 13 -8 0 -10
-12 -8 -43 8 -38 18 -41 23 -34 43 6 15 5 26 -2 30 -7 5 -8 3 -3 -6 5 -9 4
-11 -3 -6 -8 5 -8 15 -2 32 6 15 6 23 1 19 -6 -3 -8 6 -5 20 2 14 1 31 -3 38
-13 21 -12 36 3 30 8 -3 14 0 14 6 0 6 -6 11 -12 11 -9 0 -8 4 2 10 8 5 11 10
7 10 -5 0 -5 5 -2 10 4 7 14 6 28 -2 21 -10 21 -10 7 7 -14 17 -14 17 7 7 31
-17 38 -15 22 6 -11 13 -9 13 9 -2 13 -11 37 -21 55 -22z m-9 18 c3 -5 -1 -9
-9 -9 -8 0 -15 4 -15 9 0 4 4 8 9 8 6 0 12 -4 15 -8z m516 -12 c9 13 10 13 10
0 0 -12 2 -12 9 -2 4 8 12 14 16 14 4 0 12 -6 16 -14 7 -10 9 -10 9 0 0 6 5
12 11 12 5 0 7 -6 3 -12 -5 -9 -2 -9 9 1 13 10 17 10 17 1 0 -10 3 -10 14 -1
10 8 16 9 21 1 3 -6 10 -8 14 -5 5 2 17 -2 27 -10 10 -8 14 -15 9 -15 -6 0
-16 5 -22 11 -8 8 -13 8 -18 0 -4 -7 -1 -10 7 -9 7 2 12 -3 10 -10 -2 -9 5
-12 20 -8 13 3 17 3 10 0 -10 -5 -10 -9 0 -22 10 -12 10 -14 1 -8 -7 4 -13 3
-13 -3 0 -6 -8 -8 -17 -5 -17 5 -17 5 0 -6 9 -6 15 -16 12 -21 -4 -5 -11 -7
-16 -4 -5 4 -9 1 -9 -4 0 -11 11 -14 40 -12 10 0 11 -1 3 -5 -7 -3 -13 -15
-13 -25 0 -11 -4 -17 -10 -14 -6 3 -7 -1 -4 -9 3 -9 9 -14 13 -11 4 2 8 -2 8
-9 0 -8 -8 -11 -17 -9 -10 3 -24 -4 -32 -15 -17 -25 -88 -36 -72 -11 3 6 -5 3
-20 -6 -24 -16 -26 -16 -26 -1 0 10 -5 14 -10 11 -6 -4 -8 -10 -5 -15 3 -4 -5
-6 -17 -2 -15 4 -19 2 -13 -7 4 -7 -5 -5 -20 5 -33 21 -55 26 -55 12 0 -6 6
-8 13 -5 8 3 14 -1 14 -8 0 -10 -5 -11 -17 -5 -9 5 -28 7 -43 6 -18 -2 -27 1
-27 11 0 10 -6 13 -17 9 -10 -4 -14 -4 -10 0 4 4 -1 13 -11 20 -14 11 -14 13
-2 14 12 0 12 3 -2 11 -18 10 -14 37 6 51 8 5 7 8 -1 8 -11 0 -10 36 2 48 2 3
-1 12 -8 20 -9 13 -9 14 1 8 6 -4 12 -3 12 2 0 6 7 13 16 16 15 6 15 4 3 -10
-13 -16 -12 -16 8 -6 12 7 25 17 28 22 4 6 13 7 23 1 20 -10 42 -4 42 11 0 7
-5 6 -14 -1 -11 -9 -16 -9 -22 1 -4 7 -4 10 1 6 4 -4 14 -3 21 3 8 7 14 7 19
-1 3 -5 11 -10 16 -10 6 0 8 4 5 9 -9 13 18 20 27 7 5 -8 10 -6 17 4z m-696
-75 c-1 -31 2 -43 10 -38 6 3 2 -4 -8 -16 -17 -19 -17 -21 -3 -15 13 5 16 2
11 -10 -3 -9 -9 -14 -13 -12 -4 3 -7 -4 -7 -14 0 -15 3 -17 15 -7 11 9 10 5
-2 -14 -10 -14 -14 -29 -10 -33 4 -4 0 -4 -8 -1 -9 3 -21 -1 -28 -9 -11 -13
-17 -13 -35 -4 -26 14 -57 18 -50 6 4 -5 12 -7 18 -5 7 3 13 -1 13 -8 0 -10
-5 -11 -18 -4 -10 5 -26 6 -36 3 -15 -5 -15 -4 -3 5 13 9 13 11 0 12 -8 0 -25
2 -37 3 -15 2 -20 -2 -15 -13 4 -13 2 -13 -15 2 -16 14 -23 15 -29 6 -4 -8 -3
-10 4 -5 8 5 10 1 5 -10 -5 -14 -7 -14 -17 4 -9 17 -13 18 -24 6 -9 -10 -18
-11 -31 -4 -10 5 -22 6 -26 2 -5 -4 -5 1 -2 11 4 10 3 16 -2 12 -5 -3 -12 -1
-16 5 -3 5 3 10 15 10 14 0 19 4 14 13 -5 7 0 6 11 -3 11 -9 16 -10 11 -2 -4
6 -2 12 3 12 6 0 11 5 11 11 0 5 -5 7 -12 3 -7 -4 -8 -3 -4 5 6 9 11 9 21 1 9
-8 15 -8 20 0 3 6 11 7 17 4 8 -5 9 -1 5 10 -5 14 -3 15 12 6 15 -7 18 -6 17
8 0 9 5 16 13 14 7 -1 19 2 25 8 7 5 16 7 20 3 4 -4 4 0 1 9 -4 9 -1 19 6 24
8 4 10 3 5 -4 -4 -7 -2 -12 3 -12 6 0 11 8 11 18 0 14 2 15 10 2 8 -13 10 -12
10 3 0 15 3 16 23 6 20 -11 21 -11 8 4 -14 18 -11 20 32 20 14 0 15 2 5 15 -7
9 -8 13 -3 10 6 -4 17 -3 25 2 20 12 26 -2 24 -55z m947 36 c0 10 2 11 6 2 2
-7 13 -13 24 -13 10 0 19 -6 19 -12 0 -19 47 -39 55 -24 3 6 3 1 1 -12 -2 -12
0 -20 4 -17 5 3 10 2 13 -2 2 -5 2 -2 0 6 -3 12 0 11 15 -2 13 -12 21 -14 29
-6 8 8 13 7 18 -2 5 -7 4 -10 -2 -6 -6 4 -13 0 -16 -8 -4 -9 -1 -12 7 -9 7 3
20 -1 27 -9 8 -7 20 -12 28 -9 9 3 11 0 6 -8 -6 -10 -4 -12 9 -7 14 5 17 3 13
-8 -4 -8 -1 -17 5 -21 7 -4 8 -3 4 4 -4 7 -2 12 3 12 6 0 11 -4 11 -10 0 -5 7
-7 15 -4 10 4 15 0 15 -16 0 -13 4 -19 12 -14 7 4 8 3 4 -5 -6 -9 -11 -9 -24
1 -13 11 -15 11 -10 -2 4 -11 -2 -15 -21 -16 -14 -1 -20 1 -13 3 6 3 12 8 12
12 0 11 -53 6 -77 -7 -20 -11 -23 -10 -24 5 0 11 -3 13 -6 6 -5 -14 -33 -18
-33 -5 0 5 -7 9 -15 9 -11 0 -12 -4 -4 -13 8 -9 5 -11 -12 -7 -17 5 -20 3 -14
-8 7 -11 6 -12 -6 -3 -8 6 -22 10 -31 9 -10 -2 -17 0 -17 3 3 20 -2 25 -11 12
-6 -10 -10 -11 -10 -2 0 6 -7 12 -16 12 -8 0 -12 5 -9 10 3 6 1 10 -4 10 -6 0
-11 5 -11 11 0 5 4 8 9 4 5 -3 13 0 17 6 4 8 3 9 -4 5 -6 -3 -16 2 -22 13 -8
17 -8 19 4 15 15 -6 16 11 3 34 -5 7 -3 12 5 12 10 0 10 2 -1 9 -11 7 -10 11
5 21 14 8 15 10 3 6 -13 -3 -16 2 -15 19 1 17 4 21 14 13 8 -8 12 -7 13 3z
m-51 -75 c0 -2 -7 -7 -16 -10 -8 -3 -12 -2 -9 4 6 10 25 14 25 6z m-40 -116
c0 -5 -5 -10 -11 -10 -5 0 -7 5 -4 10 3 6 8 10 11 10 2 0 4 -4 4 -10z m-1037
-25 c-3 -9 -8 -14 -10 -11 -3 3 -2 9 2 15 9 16 15 13 8 -4z m1360 -2 c-3 -7
-6 -13 -8 -13 -2 0 -5 6 -8 13 -3 8 1 14 8 14 7 0 11 -6 8 -14z m-1120 -346
c5 8 52 10 52 3 0 -9 35 -5 35 3 0 7 5 4 11 -6 10 -18 11 -18 32 0 19 17 20
17 14 1 -4 -10 -2 -18 2 -18 5 0 11 6 14 13 3 8 10 6 22 -8 9 -11 14 -14 10
-7 -3 6 0 13 7 13 45 5 75 3 86 -5 7 -5 12 -5 12 1 0 5 7 10 15 10 8 0 12 -5
8 -10 -3 -5 4 -6 17 -2 13 4 20 3 17 -2 -4 -5 1 -10 9 -10 8 0 13 6 10 13 -4
10 1 11 18 4 16 -6 27 -5 35 3 10 9 12 9 9 -2 -2 -7 3 -16 11 -19 9 -3 11 0 6
9 -5 8 -5 11 0 7 4 -4 17 -2 29 4 19 10 20 10 7 -5 -8 -10 -9 -17 -3 -17 6 0
13 4 16 9 3 5 21 10 38 10 18 1 54 3 80 4 26 2 45 0 43 -3 -2 -4 2 -7 10 -7 8
0 12 4 9 9 -3 5 9 6 26 3 17 -3 29 -2 26 3 -6 10 24 9 42 -2 7 -4 19 -2 27 4
14 12 20 7 16 -14 -1 -5 4 -4 12 3 10 8 22 8 38 2 13 -5 29 -10 34 -11 27 -7
34 -13 28 -24 -3 -6 -3 -8 2 -4 4 4 15 2 23 -5 13 -9 14 -9 8 1 -4 6 -2 12 3
12 6 0 11 -7 11 -16 0 -9 5 -12 13 -8 7 5 6 0 -3 -11 -8 -10 -10 -16 -5 -13 6
3 21 2 34 -3 19 -8 21 -12 11 -24 -10 -12 -9 -15 6 -16 17 -1 17 -2 2 -6 -10
-2 -18 -11 -18 -20 0 -12 -3 -13 -14 -4 -11 9 -16 9 -22 0 -5 -8 -3 -9 6 -4 8
5 11 4 6 -3 -9 -15 -38 -3 -29 12 3 6 2 7 -3 3 -5 -5 -9 -14 -9 -19 0 -6 -6
-13 -14 -16 -9 -3 -11 0 -7 9 5 9 3 9 -6 -1 -7 -9 -20 -15 -28 -15 -8 1 -23
-3 -32 -7 -12 -6 -18 -5 -18 4 0 9 -3 9 -10 -2 -9 -13 -11 -13 -20 0 -7 11
-10 11 -10 2 0 -7 -4 -11 -9 -8 -14 9 -42 -5 -35 -16 4 -6 9 -6 14 2 6 10 12
10 26 0 16 -9 16 -11 2 -6 -10 3 -19 2 -22 -2 -2 -4 -36 -7 -75 -6 -39 1 -71
-2 -71 -7 0 -6 -7 -6 -18 0 -13 7 -23 6 -32 -2 -9 -8 -11 -9 -6 0 7 12 -11 12
-31 0 -8 -5 -13 -3 -13 5 0 9 -3 9 -10 -2 -8 -12 -10 -12 -10 -1 0 8 -7 4 -18
-9 -14 -18 -19 -19 -19 -7 0 9 5 13 11 10 6 -3 7 -2 3 2 -12 13 -36 15 -44 3
-4 -7 -1 -8 7 -3 9 6 11 4 5 -5 -6 -10 -11 -9 -22 5 -8 12 -13 14 -13 6 0 -8
-7 -11 -19 -8 -10 2 -25 1 -32 -4 -9 -5 -23 -2 -38 7 -13 9 -21 12 -17 6 3 -5
-1 -13 -10 -16 -8 -3 -12 -2 -9 3 3 5 1 12 -5 16 -5 3 -10 0 -10 -7 0 -9 -3
-9 -10 2 -8 13 -10 13 -10 1 0 -12 -3 -12 -12 -3 -8 8 -15 9 -25 1 -10 -9 -13
-8 -13 2 0 11 -2 11 -10 -1 -8 -12 -10 -12 -10 -1 0 10 -3 11 -14 2 -10 -8
-16 -9 -21 -1 -3 5 -11 10 -16 10 -6 0 -7 -6 -3 -12 5 -8 0 -7 -11 2 -10 8
-20 14 -22 13 -11 -9 -33 -1 -27 10 4 6 -1 4 -12 -5 -16 -14 -23 -15 -32 -6
-7 7 -12 9 -12 4 0 -4 -7 0 -16 8 -8 9 -20 14 -25 11 -5 -4 -9 0 -10 7 0 10
-2 10 -6 1 -2 -7 -11 -13 -19 -13 -8 0 -14 6 -14 13 0 8 -4 7 -10 -3 -7 -11
-10 -12 -10 -2 0 9 -7 11 -19 7 -10 -3 -25 0 -32 7 -18 17 -59 21 -59 6 0 -6
-3 -8 -6 -5 -4 4 -1 14 7 24 8 9 9 14 3 10 -7 -4 -22 1 -34 11 -18 15 -19 19
-7 19 9 0 13 -5 10 -11 -4 -6 1 -5 10 3 18 14 23 26 8 16 -5 -3 -13 0 -16 6
-4 6 2 13 14 16 11 3 18 9 15 14 -3 5 2 9 11 9 9 0 14 4 11 8 -2 4 4 14 16 21
11 7 17 8 14 2 -4 -7 -1 -8 8 -5 9 3 14 10 11 14 -3 4 2 11 11 14 12 5 15 2
10 -9 -3 -9 -2 -13 4 -10 6 3 10 12 10 19 0 9 10 12 30 10 19 -2 30 1 30 9 0
8 3 8 9 -2 5 -7 11 -9 14 -4z m6 -230 c0 -9 -2 -8 -6 1 -2 6 -10 9 -15 6 -7
-4 -8 -2 -4 5 9 13 26 5 25 -12z m201 -103 c0 -8 -19 -13 -24 -6 -3 5 1 9 9 9
8 0 15 -2 15 -3z"/>
<path d="M2166 3408 c3 -5 10 -6 15 -3 13 9 11 12 -6 12 -8 0 -12 -4 -9 -9z"/>
<path d="M2190 3260 c0 -5 5 -10 11 -10 5 0 7 5 4 10 -3 6 -8 10 -11 10 -2 0
-4 -4 -4 -10z"/>
<path d="M2286 3238 c3 -5 10 -6 15 -3 13 9 11 12 -6 12 -8 0 -12 -4 -9 -9z"/>
<path d="M2766 3238 c3 -5 10 -6 15 -3 13 9 11 12 -6 12 -8 0 -12 -4 -9 -9z"/>
<path d="M2090 3439 c0 -5 5 -7 10 -4 6 3 10 8 10 11 0 2 -4 4 -10 4 -5 0 -10
-5 -10 -11z"/>
<path d="M1790 3257 c0 -2 6 -10 14 -16 11 -9 16 -9 22 1 4 7 4 10 -1 6 -4 -4
-14 -3 -22 3 -7 6 -13 9 -13 6z"/>
<path d="M2573 2843 c0 -9 4 -10 14 -2 7 6 13 12 13 14 0 1 -6 2 -13 2 -8 0
-14 -6 -14 -14z"/>
<path d="M3075 2840 c3 -5 8 -10 11 -10 2 0 4 5 4 10 0 6 -5 10 -11 10 -5 0
-7 -4 -4 -10z"/>
<path d="M2526 2638 c3 -5 10 -6 15 -3 13 9 11 12 -6 12 -8 0 -12 -4 -9 -9z"/>
<path d="M3055 3561 c-3 -5 -2 -12 3 -15 5 -3 9 1 9 9 0 17 -3 19 -12 6z"/>
<path d="M1310 3519 c0 -5 5 -7 10 -4 6 3 10 8 10 11 0 2 -4 4 -10 4 -5 0 -10
-5 -10 -11z"/>
<path d="M3873 3465 c0 -8 4 -12 9 -9 5 3 6 10 3 15 -9 13 -12 11 -12 -6z"/>
<path d="M3475 3320 c21 -24 26 -25 19 -6 -3 8 -13 17 -22 21 -13 5 -13 2 3
-15z"/>
<path d="M900 3130 c-8 -5 -10 -10 -5 -10 6 0 17 5 25 10 8 5 11 10 5 10 -5 0
-17 -5 -25 -10z"/>
<path d="M1430 2956 c0 -2 7 -7 16 -10 8 -3 12 -2 9 4 -6 10 -25 14 -25 6z"/>
<path d="M3600 2880 c-9 -6 -10 -10 -3 -10 6 0 15 5 18 10 8 12 4 12 -15 0z"/>
<path d="M1186 2613 c-6 -14 -5 -15 5 -6 7 7 10 15 7 18 -3 3 -9 -2 -12 -12z"/>
<path d="M2576 2522 c-3 -5 1 -9 9 -9 8 0 12 4 9 9 -3 4 -7 8 -9 8 -2 0 -6 -4
-9 -8z"/>
<path d="M2676 2518 c3 -5 10 -6 15 -3 13 9 11 12 -6 12 -8 0 -12 -4 -9 -9z"/>
<path d="M1566 2138 c3 -5 10 -6 15 -3 13 9 11 12 -6 12 -8 0 -12 -4 -9 -9z"/>
<path d="M3156 1942 c-3 -5 1 -9 9 -9 8 0 12 4 9 9 -3 4 -7 8 -9 8 -2 0 -6 -4
-9 -8z"/>
<path d="M2280 4240 c-9 -6 -10 -10 -3 -10 6 0 15 5 18 10 8 12 4 12 -15 0z"/>
<path d="M2460 4152 c9 -19 30 -23 30 -5 0 4 -3 3 -7 0 -3 -4 -12 1 -20 11
-13 15 -13 15 -3 -6z"/>
<path d="M2640 4150 c-9 -6 -10 -10 -3 -10 6 0 15 5 18 10 8 12 4 12 -15 0z"/>
<path d="M1159 3523 c-13 -16 -12 -17 4 -4 9 7 17 15 17 17 0 8 -8 3 -21 -13z"/>
<path d="M813 3185 c0 -8 4 -12 9 -9 5 3 6 10 3 15 -9 13 -12 11 -12 -6z"/>
<path d="M854 2882 c4 -3 14 -7 22 -8 9 -1 13 0 10 4 -4 3 -14 7 -22 8 -9 1
-13 0 -10 -4z"/>
<path d="M1150 2426 c0 -2 7 -7 16 -10 8 -3 12 -2 9 4 -6 10 -25 14 -25 6z"/>
<path d="M1017 2363 c-4 -3 -7 -11 -7 -17 0 -6 5 -5 12 2 6 6 9 14 7 17 -3 3
-9 2 -12 -2z"/>
<path d="M1045 2362 c3 -3 -3 -11 -13 -18 -12 -9 -21 -9 -29 -2 -7 6 -14 8
-14 4 -1 -3 -3 -10 -4 -16 -1 -5 -3 -13 -4 -17 -1 -5 -5 -2 -10 6 -7 10 -12
11 -27 1 -13 -7 -14 -10 -3 -7 9 3 16 -1 16 -8 0 -8 -9 -11 -24 -9 -17 3 -22
1 -17 -7 5 -9 2 -10 -10 -6 -10 4 -15 3 -11 -3 3 -6 -2 -10 -12 -10 -14 0 -15
-2 -5 -9 11 -6 9 -9 -6 -13 -16 -4 -19 -2 -16 11 3 9 -1 6 -8 -7 -10 -16 -17
-19 -25 -11 -9 9 -11 5 -9 -14 2 -15 -1 -24 -6 -21 -5 3 -16 0 -25 -8 -14 -11
-16 -11 -8 2 8 13 7 13 -8 1 -13 -11 -17 -11 -17 -1 0 8 -3 11 -6 8 -3 -4 0
-17 7 -30 12 -22 11 -22 -6 -8 -17 14 -18 13 -12 -3 5 -13 3 -16 -5 -10 -26
15 -45 10 -41 -11 4 -15 2 -17 -5 -8 -7 11 -11 8 -16 -10 -4 -17 -8 -20 -15
-9 -9 14 -26 -2 -17 -17 3 -4 -8 -7 -25 -6 -16 1 -26 -2 -23 -7 3 -5 0 -9 -6
-9 -6 0 -9 -4 -5 -9 3 -6 -3 -8 -14 -6 -11 2 -26 -4 -33 -13 -11 -13 -11 -15
2 -8 8 4 6 0 -4 -8 -15 -12 -16 -16 -5 -16 12 0 12 -2 -1 -11 -11 -8 -12 -12
-2 -16 6 -2 10 -9 7 -14 -4 -5 2 -6 11 -2 11 4 15 3 10 -5 -3 -6 -1 -14 5 -18
8 -4 9 -3 5 4 -4 7 -2 12 3 12 6 0 11 -5 11 -11 0 -7 12 1 27 17 29 31 53 39
65 21 5 -7 6 0 4 15 -4 26 -3 27 17 16 21 -10 21 -10 7 7 -14 17 -14 17 7 7
16 -9 24 -9 29 0 4 7 3 8 -4 4 -7 -4 -12 -3 -12 1 0 5 9 14 21 21 12 8 18 9
14 3 -3 -6 -1 -11 4 -11 6 0 11 8 11 18 0 13 2 14 9 3 6 -9 11 -10 15 -2 4 6
4 11 1 11 -4 0 0 7 9 15 19 20 27 19 20 -2 -4 -10 3 -3 15 15 11 17 24 32 27
32 4 0 0 -7 -7 -17 -13 -15 -12 -15 8 -4 13 6 22 17 20 23 -1 7 5 13 13 14 36
3 40 5 40 15 0 5 -5 7 -12 3 -6 -4 -8 -3 -4 4 3 6 17 9 31 6 13 -2 27 0 30 6
4 6 10 8 15 5 5 -3 12 0 16 6 5 8 3 9 -6 4 -8 -5 -11 -3 -8 6 3 8 13 13 22 11
9 -2 19 4 22 12 3 9 12 12 22 8 15 -5 15 -3 4 10 -11 14 -10 16 10 11 18 -4
20 -3 8 6 -10 7 -11 11 -3 11 7 0 10 7 6 17 -4 11 -3 14 5 9 7 -4 12 -2 12 3
0 6 -6 11 -14 11 -8 0 -18 4 -21 10 -4 6 1 7 12 3 15 -6 16 -5 3 8 -8 9 -20
16 -27 16 -7 0 -11 -3 -8 -5z m-480 -320 c-3 -3 -11 0 -18 7 -9 10 -8 11 6 5
10 -3 15 -9 12 -12z"/>
<path d="M4076 2351 c-14 -13 -14 -17 1 -33 15 -17 15 -18 1 -13 -9 4 -19 1
-23 -5 -4 -6 -1 -9 7 -8 7 2 12 -3 10 -11 -3 -12 -1 -12 14 0 10 8 15 9 11 3
-4 -7 2 -14 14 -17 15 -4 20 -11 15 -23 -5 -14 -4 -15 8 -5 12 10 17 9 28 -8
10 -16 15 -18 27 -8 12 10 13 9 1 -13 -12 -23 -12 -24 3 -11 12 9 17 10 17 2
0 -7 6 -11 13 -10 24 3 37 -1 37 -12 0 -8 -4 -8 -13 0 -10 8 -14 7 -14 -3 0
-9 9 -13 24 -11 12 1 29 -5 35 -14 12 -14 11 -14 -4 -2 -10 7 -18 9 -18 3 0
-15 26 -22 39 -9 8 8 9 5 6 -11 -4 -23 10 -31 18 -9 4 10 6 10 6 0 1 -7 6 -13
12 -13 16 0 39 -26 31 -36 -4 -5 1 -2 11 5 14 11 17 11 17 -2 0 -22 26 -41 36
-26 4 7 3 9 -4 5 -6 -3 -13 -2 -16 3 -4 5 2 8 11 6 10 -1 17 -9 15 -18 -2 -11
4 -15 22 -13 19 2 24 -1 21 -16 -2 -10 0 -16 6 -13 5 4 9 0 9 -7 0 -9 3 -9 10
2 6 10 10 11 10 3 0 -7 10 -13 23 -13 18 0 19 -2 7 -11 -12 -8 -10 -10 10 -6
14 2 34 7 45 11 15 5 14 4 -2 -5 -13 -7 -23 -16 -23 -22 0 -5 7 -4 15 3 8 7
15 9 15 6 0 -4 6 -1 14 6 10 9 11 15 2 21 -8 5 -7 9 2 16 11 7 10 9 -3 14 -13
6 -14 10 -4 29 11 21 11 22 -4 9 -14 -11 -17 -11 -18 0 -1 8 -1 18 0 23 1 5
-4 4 -12 -3 -12 -10 -19 -6 -37 19 -13 19 -30 30 -45 30 -13 0 -27 5 -31 12
-5 7 -3 8 6 3 9 -6 11 -4 6 4 -5 7 -11 10 -14 7 -3 -3 -14 2 -25 11 -11 10
-18 13 -14 8 3 -6 -3 -11 -13 -11 -14 0 -16 3 -8 13 7 9 7 13 -1 13 -7 0 -10
4 -7 9 3 5 -7 8 -23 7 -22 -1 -27 2 -23 13 4 11 0 13 -16 9 -21 -6 -31 5 -14
15 4 2 2 3 -4 1 -6 -1 -17 3 -24 9 -10 9 -11 9 -5 -2 6 -10 4 -12 -4 -7 -7 5
-10 15 -7 23 4 9 2 11 -6 7 -8 -5 -9 -1 -5 12 6 17 6 17 -6 2 -12 -15 -14 -15
-25 0 -9 11 -11 12 -6 2 3 -8 -5 -2 -20 14 -14 16 -26 24 -26 17 0 -7 -5 -9
-10 -6 -6 4 -7 11 -4 17 5 8 1 9 -10 5 -14 -6 -16 -3 -12 16 3 12 3 16 0 10
-3 -7 -10 -13 -15 -13 -6 0 -8 4 -5 8 9 15 -53 9 -68 -7z m24 5 c0 -2 -8 -10
-17 -17 -16 -13 -17 -12 -4 4 13 16 21 21 21 13z m445 -245 c3 -5 0 -13 -6
-17 -7 -4 -9 -3 -5 4 3 5 0 13 -6 15 -9 4 -10 6 -1 6 6 1 14 -3 18 -8z"/>
<path d="M4100 2250 c-9 -6 -10 -10 -3 -10 6 0 15 5 18 10 8 12 4 12 -15 0z"/>
<path d="M1635 1960 c3 -5 8 -10 11 -10 2 0 4 5 4 10 0 6 -5 10 -11 10 -5 0
-7 -4 -4 -10z"/>
<path d="M1755 1900 c-4 -6 -3 -10 2 -9 21 4 34 -2 27 -13 -4 -7 -3 -8 4 -4
16 10 15 14 -7 26 -14 7 -22 7 -26 0z"/>
<path d="M1386 1889 c5 -8 -10 -13 -29 -10 -5 1 -6 -3 -2 -9 3 -6 11 -7 17 -4
7 4 8 2 4 -4 -4 -7 -17 -12 -29 -12 -18 0 -19 -2 -7 -10 13 -8 13 -10 -2 -10
-9 0 -20 -5 -24 -12 -5 -7 -3 -8 6 -3 9 6 11 4 6 -4 -5 -7 -14 -10 -21 -7 -9
3 -12 -3 -11 -19 2 -18 -1 -22 -15 -20 -12 2 -16 -1 -13 -10 6 -14 -34 -47
-47 -39 -4 2 -6 -4 -4 -14 2 -10 -6 -29 -17 -43 -19 -24 -19 -24 -8 -1 6 13 9
26 7 28 -3 3 -11 -8 -18 -25 -7 -16 -18 -27 -24 -23 -5 3 -4 -1 3 -10 10 -13
10 -18 1 -24 -8 -4 -9 -3 -5 4 4 7 2 12 -3 12 -6 0 -11 -6 -11 -14 0 -14 -28
-31 -45 -27 -5 2 -7 0 -3 -4 9 -10 -12 -66 -23 -59 -5 3 -9 0 -9 -5 0 -6 -5
-10 -12 -9 -7 2 -13 -3 -14 -9 -1 -7 -2 -18 -3 -24 0 -5 -6 -7 -12 -4 -6 4 -9
0 -7 -10 2 -10 -3 -20 -11 -23 -9 -3 -11 0 -6 8 5 8 4 11 -3 6 -13 -8 -5 -36
10 -36 6 0 4 -7 -3 -17 -13 -15 -12 -15 7 -5 18 10 21 9 20 -5 0 -9 5 -18 12
-20 6 -3 12 0 12 7 0 6 -6 8 -12 4 -7 -4 -9 -3 -5 1 10 12 39 16 32 5 -7 -11
22 -7 32 5 4 4 2 5 -6 0 -9 -5 -12 -3 -9 6 3 8 11 13 17 11 6 -1 11 5 11 14 0
11 5 14 16 10 14 -5 15 -4 5 8 -10 12 -8 18 13 31 14 9 31 13 37 9 7 -4 9 -3
6 3 -4 6 2 18 13 28 11 10 16 24 13 33 -4 10 -2 13 5 8 7 -4 12 -2 12 4 0 6 4
9 9 5 5 -3 13 0 17 6 4 7 3 9 -4 5 -6 -3 -13 -2 -17 4 -3 5 1 10 10 10 10 0
13 5 9 13 -4 6 -4 9 0 5 10 -9 56 32 56 49 0 8 5 11 12 7 8 -5 9 -2 5 9 -3 9
-1 19 5 23 7 5 8 2 3 -6 -5 -9 -4 -11 3 -6 7 4 12 14 12 22 0 8 5 12 10 9 6
-3 10 3 10 13 0 11 7 26 17 33 15 13 15 12 4 -11 -12 -24 -11 -24 4 -5 9 11
20 19 24 18 4 -1 7 10 7 24 -1 15 5 28 14 30 13 4 13 3 0 -7 -12 -9 -12 -11
-1 -8 8 2 15 12 17 21 1 9 -1 15 -5 12 -5 -2 -6 7 -3 20 2 15 0 25 -7 25 -7 0
-9 5 -5 13 5 7 0 6 -11 -3 -10 -8 -16 -10 -12 -4 4 7 -2 14 -13 17 -11 3 -18
1 -14 -4z m-91 -248 c3 -5 2 -12 -3 -15 -5 -3 -9 1 -9 9 0 17 3 19 12 6z
m-165 -75 c0 -2 -7 -7 -16 -10 -8 -3 -12 -2 -9 4 6 10 25 14 25 6z m65 -56
c-10 -11 -21 -18 -23 -15 -3 3 3 12 14 20 27 20 30 18 9 -5z"/>
<path d="M3740 1885 c-1 -11 -4 -14 -7 -7 -2 6 -9 12 -14 12 -6 0 -8 -4 -5 -9
4 -5 1 -11 -4 -13 -6 -2 -13 -15 -15 -29 -4 -21 0 -28 16 -32 16 -4 20 -11 16
-26 -3 -12 -1 -19 3 -16 5 3 11 1 15 -5 4 -6 12 -7 18 -3 7 4 5 -2 -3 -12 -9
-11 -10 -16 -2 -11 7 4 15 1 18 -8 3 -9 14 -16 23 -16 14 0 14 -2 1 -10 -11
-7 -11 -10 -2 -10 8 0 10 -5 6 -12 -6 -10 -4 -10 8 0 13 10 17 10 22 -3 3 -9
2 -13 -4 -10 -6 3 -10 1 -10 -4 0 -6 10 -11 23 -11 18 0 19 -2 7 -11 -12 -9
-11 -10 7 -6 15 3 20 1 16 -9 -3 -8 0 -14 7 -14 6 0 8 -4 5 -10 -3 -5 -1 -10
5 -10 6 0 8 -5 4 -12 -5 -8 0 -7 11 2 11 9 16 10 11 3 -4 -7 -2 -13 3 -13 6 0
11 -9 11 -19 0 -11 14 -29 30 -41 17 -12 27 -26 24 -32 -4 -7 -2 -8 4 -4 13 8
35 -27 24 -40 -4 -5 1 -2 10 5 15 11 17 10 13 -8 -2 -12 0 -19 4 -16 5 2 11
-4 14 -15 3 -13 10 -18 21 -14 9 3 16 2 16 -4 0 -5 7 -13 16 -16 15 -6 15 -4
3 10 -13 16 -12 16 8 6 30 -17 41 -15 17 3 -18 14 -18 14 3 10 13 -2 26 1 29
7 4 7 2 8 -4 4 -7 -4 -12 -3 -12 3 0 5 6 12 13 14 7 3 6 6 -5 6 -9 1 -20 10
-23 21 -4 12 -11 17 -18 13 -7 -4 -5 2 3 12 9 11 10 16 3 11 -12 -6 -17 4 -15
25 1 4 -6 6 -15 5 -9 0 -18 6 -20 14 -4 13 -3 13 7 0 10 -13 11 -12 6 3 -3 10
-6 21 -6 25 0 3 -7 -3 -16 -14 -8 -10 -13 -14 -10 -7 4 6 -1 18 -9 26 -18 18
-20 31 -3 21 7 -4 8 -3 4 4 -4 6 -14 8 -23 5 -10 -4 -14 -2 -10 4 4 6 0 13 -8
17 -8 3 -15 16 -16 28 0 22 -1 22 -9 3 -6 -15 -9 -16 -9 -4 -1 9 -11 21 -23
28 -13 6 -15 9 -5 7 25 -8 21 -1 -15 24 -26 17 -28 21 -10 17 13 -3 20 -1 16
5 -4 5 -16 8 -28 6 -19 -4 -22 0 -20 24 1 16 0 27 -3 24 -3 -3 -14 5 -25 17
-17 19 -17 17 2 -13 l22 -35 -26 30 c-14 17 -26 36 -26 44 0 11 -3 11 -15 1
-13 -11 -14 -10 -9 3 8 22 -24 56 -36 37 -5 -8 -11 -4 -18 16 -8 23 -11 25
-12 9z m-23 -32 c-4 -3 -2 -11 3 -18 7 -8 5 -12 -4 -12 -8 0 -12 7 -11 16 5
22 4 21 12 21 3 0 3 -3 0 -7z"/>
<path d="M3030 1779 c0 -5 5 -7 10 -4 6 3 10 8 10 11 0 2 -4 4 -10 4 -5 0 -10
-5 -10 -11z"/>
<path d="M1236 1738 c3 -5 10 -6 15 -3 13 9 11 12 -6 12 -8 0 -12 -4 -9 -9z"/>
<path d="M2570 1736 c0 -2 8 -10 18 -17 15 -13 16 -12 3 4 -13 16 -21 21 -21
13z"/>
<path d="M2666 1723 c-6 -14 -5 -15 5 -6 7 7 10 15 7 18 -3 3 -9 -2 -12 -12z"/>
<path d="M1864 1639 c-3 -6 -3 -13 0 -16 3 -4 6 -1 6 6 0 7 5 9 10 6 6 -3 10
-10 10 -14 0 -12 -34 -9 -42 3 -5 7 -8 3 -8 -8 0 -11 -3 -16 -7 -13 -11 12
-37 -36 -39 -72 -1 -20 -5 -45 -9 -55 -6 -14 -5 -17 3 -12 8 5 10 2 6 -8 -3
-9 -10 -14 -14 -11 -5 3 -11 1 -14 -4 -4 -5 -1 -13 5 -17 8 -5 9 -3 4 6 -5 9
-4 11 4 6 15 -9 5 -26 -16 -26 -11 0 -13 -4 -6 -12 13 -16 8 -51 -6 -56 -8 -3
-7 -10 0 -24 8 -15 8 -19 -1 -13 -7 4 -13 -1 -17 -14 -3 -11 -8 -19 -12 -17
-4 3 -7 -4 -7 -14 0 -10 4 -16 8 -14 4 3 5 -2 2 -10 -3 -9 -11 -13 -18 -9 -8
5 -8 3 0 -8 15 -19 14 -51 -1 -45 -7 2 -17 1 -24 -4 -10 -5 -9 -9 4 -13 10 -5
14 -3 9 5 -5 7 -3 8 6 3 11 -6 10 -10 -2 -19 -19 -14 -33 -50 -15 -40 6 4 3
-2 -7 -14 -12 -14 -15 -22 -6 -22 7 0 10 -7 6 -16 -3 -8 -1 -25 5 -37 9 -19 7
-18 -11 3 -11 14 -19 18 -18 10 4 -19 23 -40 37 -40 6 0 11 -4 11 -10 0 -5 8
-10 18 -9 10 0 12 3 4 6 -6 2 -10 9 -7 13 3 5 12 7 19 4 7 -3 19 3 27 12 9 12
10 15 2 10 -19 -11 -16 5 5 21 9 8 11 12 5 8 -7 -3 -13 -1 -13 4 0 6 5 11 11
11 5 0 8 4 5 9 -6 10 18 63 25 56 3 -2 5 4 5 15 0 10 -4 16 -8 14 -4 -3 -5 2
-2 10 3 9 11 13 17 9 6 -4 7 -1 1 8 -14 23 -13 37 4 51 13 11 14 11 7 -1 -5
-10 -4 -12 4 -7 9 6 9 11 -1 24 -11 14 -10 15 6 9 16 -6 17 -5 7 7 -9 10 -9
16 -1 21 8 5 7 11 -2 23 -10 13 -10 14 0 8 9 -6 12 -1 8 17 -2 15 0 24 7 23 7
0 14 4 15 9 2 6 9 17 15 25 10 13 10 13 -5 1 -10 -7 -15 -18 -11 -24 3 -6 1
-7 -6 -3 -9 6 -9 11 -1 21 11 13 19 40 25 80 1 11 8 19 15 17 10 -2 10 1 -1
14 -12 15 -12 17 0 9 11 -6 13 -3 9 13 -4 12 -2 20 2 17 5 -3 11 -1 15 5 3 5
1 10 -4 10 -6 0 -11 5 -11 11 0 5 4 8 9 4 11 -6 6 34 -5 44 -4 3 -4 -2 -1 -12
4 -12 3 -16 -4 -11 -6 3 -9 14 -6 24 5 20 -28 46 -39 29z m-44 -69 c0 -5 -5
-10 -11 -10 -5 0 -7 5 -4 10 3 6 8 10 11 10 2 0 4 -4 4 -10z m10 -24 c0 -2 -7
-7 -16 -10 -8 -3 -12 -2 -9 4 6 10 25 14 25 6z"/>
<path d="M3258 1632 c0 -4 -2 -14 -2 -22 -1 -8 -9 -14 -17 -14 -13 1 -15 -5
-9 -32 4 -18 5 -36 1 -40 -3 -4 0 -4 7 0 7 4 12 1 12 -9 0 -10 -5 -13 -12 -9
-10 6 -10 5 -1 -8 7 -8 9 -19 5 -23 -4 -5 -1 -5 6 -1 7 4 10 11 7 16 -3 5 -1
11 4 14 5 4 8 -2 6 -11 -1 -10 3 -24 9 -32 9 -12 8 -13 -7 -8 -16 6 -17 5 -3
-14 8 -12 12 -28 9 -35 -3 -8 1 -14 8 -14 11 0 11 -3 -1 -10 -12 -8 -12 -10
-1 -10 10 0 11 -3 2 -14 -9 -11 -9 -16 0 -22 8 -4 9 -3 5 4 -4 7 -1 12 8 12
10 0 13 -6 9 -17 -4 -9 -2 -14 3 -10 5 3 10 -3 10 -13 0 -15 -3 -17 -16 -7
-10 8 -9 5 3 -9 9 -11 14 -24 10 -27 -3 -4 -1 -7 7 -7 10 0 10 -3 0 -15 -9
-10 -9 -15 -1 -16 26 -3 30 -4 38 -13 4 -5 3 -6 -4 -3 -16 10 -22 -15 -7 -31
7 -7 11 -21 9 -32 -2 -11 1 -20 7 -20 6 0 5 -7 -3 -17 -10 -11 -10 -14 -1 -9
7 4 12 2 12 -4 0 -6 4 -9 8 -6 5 3 8 -3 8 -12 0 -56 5 -73 17 -66 8 6 8 3 -1
-9 -12 -14 -11 -16 8 -12 18 3 20 2 10 -10 -15 -18 1 -20 19 -2 7 6 12 8 11 2
-2 -5 -2 -17 -1 -25 1 -13 3 -13 10 -1 5 8 7 20 4 28 -4 9 0 11 11 7 9 -3 16
-1 16 5 0 6 -5 11 -12 11 -6 0 -3 7 8 16 10 8 14 13 7 10 -6 -4 -14 -2 -18 4
-3 5 -2 10 2 10 15 0 7 54 -8 58 -11 3 -11 1 1 -7 13 -9 13 -11 -1 -11 -10 0
-17 9 -17 23 -2 30 -6 50 -15 64 -4 6 -2 15 4 19 8 4 7 9 -2 15 -12 8 -11 11
1 19 8 5 10 10 5 10 -6 0 -17 -6 -24 -12 -11 -11 -12 -10 -7 0 4 7 2 19 -4 27
-8 9 -8 15 -2 15 6 0 13 -6 15 -12 4 -8 6 -9 6 -2 1 6 -6 17 -14 24 -10 9 -12
17 -5 30 7 13 5 21 -5 30 -10 8 -12 17 -6 24 6 7 4 18 -5 30 -8 11 -14 15 -14
10 0 -6 5 -15 12 -22 9 -9 9 -12 0 -12 -10 0 -19 21 -25 61 -2 8 -7 20 -11 28
-7 10 -5 12 5 6 8 -5 5 2 -5 14 -20 22 -20 22 0 16 17 -6 17 -5 3 7 -9 7 -14
19 -11 27 2 8 1 11 -4 8 -5 -2 -15 1 -22 9 -7 8 -8 14 -2 14 5 0 10 7 10 15 0
8 -6 15 -12 15 -9 0 -10 2 -2 8 7 4 -1 13 -22 24 -19 10 -35 14 -36 10z m147
-301 c3 -5 2 -12 -3 -15 -5 -3 -9 1 -9 9 0 17 3 19 12 6z"/>
<path d="M2570 1555 c0 -10 3 -15 7 -12 3 4 15 0 25 -10 10 -9 21 -13 25 -10
3 4 1 7 -6 7 -7 0 -9 5 -5 13 4 6 3 9 -1 4 -5 -4 -17 0 -27 10 -17 15 -18 15
-18 -2z"/>
<path d="M2537 1543 c-2 -5 -3 -17 -3 -28 1 -11 -3 -23 -8 -27 -13 -9 -17 -40
-5 -32 5 3 6 11 2 17 -4 7 0 6 10 -2 19 -15 23 -26 5 -15 -8 5 -9 0 -6 -14 4
-12 2 -20 -2 -17 -5 3 -11 1 -15 -5 -3 -5 1 -10 11 -10 14 0 15 -3 2 -22 -8
-13 -13 -29 -12 -35 1 -7 2 -21 3 -30 1 -16 3 -16 12 -3 9 12 10 12 5 -3 -3
-10 -2 -26 3 -36 7 -13 6 -18 -4 -18 -7 0 -11 6 -8 13 2 6 0 14 -5 18 -15 9
-7 -30 12 -59 10 -15 12 -24 5 -20 -9 6 -11 2 -7 -13 4 -12 2 -20 -2 -17 -5 3
-11 1 -15 -5 -3 -5 1 -10 11 -10 14 0 15 -3 2 -22 -8 -13 -13 -29 -12 -35 1
-7 2 -21 3 -30 1 -16 3 -16 12 -3 9 12 10 12 5 -3 -3 -10 -2 -26 3 -36 7 -13
6 -18 -4 -18 -7 0 -11 6 -8 13 2 6 0 14 -5 18 -10 6 -9 -24 2 -42 10 -17 14
-72 5 -66 -4 2 -10 0 -14 -6 -3 -5 1 -10 9 -10 8 0 18 -5 22 -12 4 -7 3 -8 -4
-4 -7 4 -12 1 -12 -8 0 -9 9 -16 20 -16 11 0 20 -4 20 -8 0 -5 7 -9 15 -9 10
0 14 6 10 15 -4 12 -3 13 10 2 13 -11 14 -10 9 5 -5 13 -4 16 5 11 6 -4 11 -4
10 1 -4 21 2 34 13 27 7 -4 8 -3 4 5 -4 6 -11 9 -16 6 -4 -3 -10 4 -13 16 -4
16 -3 18 8 9 10 -8 15 -8 21 1 4 7 3 9 -3 6 -6 -4 -15 5 -21 18 -8 18 -8 26 0
31 6 4 8 3 4 -4 -3 -6 -1 -14 5 -18 8 -4 9 -3 5 4 -4 7 -2 12 4 12 7 0 5 7 -4
16 -22 21 -20 40 2 23 15 -12 15 -12 5 1 -11 15 -13 20 -13 41 0 5 -4 8 -9 5
-5 -4 -7 3 -4 13 3 11 12 22 22 24 14 4 14 5 -1 6 -10 0 -18 6 -18 12 0 5 5 7
12 3 6 -4 8 -3 4 4 -3 5 -3 12 1 15 5 2 2 2 -4 1 -7 -2 -13 4 -13 12 0 8 4 13
9 9 5 -3 13 0 17 6 4 8 3 9 -4 5 -7 -4 -12 -2 -12 4 0 6 -4 9 -8 6 -11 -6 -9
31 2 41 4 5 6 3 4 -2 -3 -9 4 -15 18 -15 3 0 -2 10 -10 22 -17 24 -21 40 -8
35 11 -3 14 6 7 25 -4 10 -11 16 -15 13 -5 -3 -6 4 -3 14 3 11 12 22 22 24 14
4 14 5 -1 6 -10 0 -18 6 -18 12 0 5 5 7 12 3 6 -4 8 -3 4 4 -3 5 -3 12 1 15 5
2 3 3 -4 1 -6 -1 -13 6 -16 17 -4 16 -3 18 8 9 10 -8 15 -8 21 1 4 7 3 9 -3 6
-6 -4 -15 5 -22 20 -11 24 -11 25 5 12 10 -8 15 -9 11 -2 -4 6 -1 14 5 16 7 3
3 6 -8 6 -12 1 -27 7 -33 15 -7 8 -23 13 -37 10 -16 -3 -23 -1 -19 6 3 5 4 10
1 10 -3 0 -7 -3 -9 -7z m13 -188 c0 -2 -6 -5 -13 -8 -8 -3 -14 1 -14 8 0 7 6
11 14 8 7 -3 13 -6 13 -8z m0 -240 c0 -2 -6 -5 -13 -8 -8 -3 -14 1 -14 8 0 7
6 11 14 8 7 -3 13 -6 13 -8z"/>
<path d="M1135 1450 c-3 -5 -1 -10 4 -10 6 0 11 5 11 10 0 6 -2 10 -4 10 -3 0
-8 -4 -11 -10z"/>
<path d="M1715 1320 c-3 -5 -1 -10 4 -10 6 0 11 5 11 10 0 6 -2 10 -4 10 -3 0
-8 -4 -11 -10z"/>
<path d="M2513 1225 c0 -8 4 -12 9 -9 5 3 6 10 3 15 -9 13 -12 11 -12 -6z"/>
<path d="M1813 1205 c0 -8 4 -12 9 -9 5 3 6 10 3 15 -9 13 -12 11 -12 -6z"/>
<path d="M3315 1209 c-4 -6 -5 -12 -2 -15 2 -3 7 2 10 11 7 17 1 20 -8 4z"/>
<path d="M1695 1200 c-3 -5 -1 -10 4 -10 6 0 11 5 11 10 0 6 -2 10 -4 10 -3 0
-8 -4 -11 -10z"/>
<path d="M1790 1080 c0 -5 5 -10 11 -10 5 0 7 5 4 10 -3 6 -8 10 -11 10 -2 0
-4 -4 -4 -10z"/>
<path d="M3356 1073 c-6 -14 -5 -15 5 -6 7 7 10 15 7 18 -3 3 -9 -2 -12 -12z"/>
<path d="M3371 1044 c0 -11 3 -14 6 -6 3 7 2 16 -1 19 -3 4 -6 -2 -5 -13z"/>
<path d="M2513 985 c0 -8 4 -12 9 -9 5 3 6 10 3 15 -9 13 -12 11 -12 -6z"/>
</g>
</svg>
